<svg xmlns="http://www.w3.org/2000/svg" width="161.813" height="107.968" viewBox="0 0 161.813 107.968">
  <g id="forgot" transform="translate(0 0)">
    <path id="Path_5503" data-name="Path 5503" d="M189.241,47.979c-10.374-.36-20.253-3.7-29.688-7.351s-18.779-7.7-28.9-9.636c-6.512-1.245-13.961-1.421-19.207,2.06-5.05,3.356-6.682,9.132-7.559,14.5-.66,4.036-1.048,8.285.76,12.063,1.257,2.624,3.485,4.829,5.026,7.343,5.365,8.744,1.572,19.527-4.24,28.065-2.725,4.006-5.89,7.83-7.995,12.09s-3.077,9.148-1.236,13.5c1.824,4.314,6.172,7.549,10.883,9.826,9.567,4.626,20.837,5.949,31.834,6.7,24.336,1.66,48.8.941,73.2.222,9.03-.267,18.1-.537,26.982-1.929,4.933-.773,10.026-2,13.608-4.962a11.338,11.338,0,0,0,2.625-14.842c-5.11-7.908-19.234-9.872-22.81-18.359-1.965-4.672.053-9.875,2.911-14.209,6.129-9.294,16.4-17.448,16.942-28.071.372-7.3-4.566-14.6-12.2-18.057-8-3.618-19.1-3.164-25,2.827C209.085,45.923,198.4,48.3,189.241,47.979Z" transform="translate(-95.226 -30.178)" fill="#fff6f7"/>
    <g id="Group_4198" data-name="Group 4198" transform="translate(35 0.002)">
      <g id="Group_4197" data-name="Group 4197" transform="translate(0 0)">
        <ellipse id="Ellipse_463" data-name="Ellipse 463" cx="4" cy="3.5" rx="4" ry="3.5" transform="translate(46 62.328)" fill="#ff5a61"/>
        <path id="Path_5501" data-name="Path 5501" d="M78.478,89.724H31.144a7.612,7.612,0,0,1-7.6-7.6V50.945a7.612,7.612,0,0,1,7.6-7.6H85.891a7.74,7.74,0,0,1,2.1.233,3.8,3.8,0,0,0,2.094-7.31,15.107,15.107,0,0,0-4.194-.527H81.322V22.33a22.816,22.816,0,0,0-45.622,0V35.738H31.144A15.225,15.225,0,0,0,15.937,50.945V82.12A15.225,15.225,0,0,0,31.144,97.328H78.478a3.8,3.8,0,0,0,0-7.6ZM43.3,22.33a15.215,15.215,0,0,1,30.415,0V35.738H43.3Z" transform="translate(-15.937)" fill="#ff5a61"/>
        <circle id="Ellipse_464" data-name="Ellipse 464" cx="3.5" cy="3.5" r="3.5" transform="translate(32 62.328)" fill="#ff5a61"/>
        <path id="Path_5502" data-name="Path 5502" d="M381,274.346a13.5,13.5,0,0,0-27,.155,3.8,3.8,0,0,0,7.6,0,5.9,5.9,0,0,1,11.8,0c0,.035,0,.069,0,.1a5.9,5.9,0,0,1-3.586,5.329,10.112,10.112,0,0,0-6.115,9.334v3.288a3.8,3.8,0,1,0,7.6,0v-3.288a2.519,2.519,0,0,1,1.5-2.341,13.489,13.489,0,0,0,8.2-12.426Q381.005,274.423,381,274.346Z" transform="translate(-289.736 -211.386)" fill="#ff5a61"/>
        <circle id="Ellipse_465" data-name="Ellipse 465" cx="4" cy="4" r="4" transform="translate(74 89.328)" fill="#ff5a61"/>
        <ellipse id="Ellipse_466" data-name="Ellipse 466" cx="4" cy="3.5" rx="4" ry="3.5" transform="translate(17 62.328)" fill="#ff5a61"/>
      </g>
    </g>
  </g>
</svg>
