<svg xmlns="http://www.w3.org/2000/svg" width="30.18" height="30.18" viewBox="0 0 30.18 30.18">
  <path id="Icon_awesome-check-circle" data-name="Icon awesome-check-circle" d="M30.742,15.652A15.09,15.09,0,1,1,15.652.563,15.09,15.09,0,0,1,30.742,15.652Zm-16.835,7.99,11.2-11.2a.974.974,0,0,0,0-1.377L23.726,9.693a.974.974,0,0,0-1.377,0l-9.13,9.13L8.956,14.561a.974.974,0,0,0-1.377,0L6.2,15.937a.974.974,0,0,0,0,1.377l6.328,6.328a.974.974,0,0,0,1.377,0Z" transform="translate(-0.563 -0.563)" fill="#ff5a61"/>
</svg>
