<svg xmlns="http://www.w3.org/2000/svg" width="29.805" height="29.858" viewBox="0 0 29.805 29.858">
  <path id="Icon_feather-phone-call" data-name="Icon feather-phone-call" d="M20.324,6.8a6.63,6.63,0,0,1,5.238,5.238M20.324,1.5A11.934,11.934,0,0,1,30.866,12.029M29.54,22.61v3.978a2.652,2.652,0,0,1-2.891,2.652A26.242,26.242,0,0,1,15.206,25.17,25.858,25.858,0,0,1,7.25,17.214a26.242,26.242,0,0,1-4.071-11.5A2.652,2.652,0,0,1,5.817,2.826H9.8a2.652,2.652,0,0,1,2.652,2.281,17.026,17.026,0,0,0,.928,3.726,2.652,2.652,0,0,1-.6,2.8L11.1,13.315a21.217,21.217,0,0,0,7.956,7.956l1.684-1.684a2.652,2.652,0,0,1,2.8-.6,17.026,17.026,0,0,0,3.726.928A2.652,2.652,0,0,1,29.54,22.61Z" transform="translate(-2.167 -0.396)" fill="none" stroke="#ff5a61" stroke-linecap="round" stroke-linejoin="round" stroke-width="2"/>
</svg>
