<svg id="Icon_ionic-ios-card" data-name="Icon ionic-ios-card" xmlns="http://www.w3.org/2000/svg" width="44.198" height="31.57" viewBox="0 0 44.198 31.57">
  <path id="Path_28752" data-name="Path 28752" d="M46.448,9.907A3.166,3.166,0,0,0,43.291,6.75H5.407A3.166,3.166,0,0,0,2.25,9.907v4.736h44.2Z" transform="translate(-2.25 -6.75)" fill="#ff5a61"/>
  <path id="Path_28753" data-name="Path 28753" d="M2.25,31.535a3.166,3.166,0,0,0,3.157,3.157H43.291a3.166,3.166,0,0,0,3.157-3.157V15.75H2.25ZM16.259,26.8h16.18a1.385,1.385,0,0,1,1.381,1.381h0a1.385,1.385,0,0,1-1.381,1.381H16.259a1.385,1.385,0,0,1-1.381-1.381h0A1.385,1.385,0,0,1,16.259,26.8Zm-7.1,0H10.34a1.385,1.385,0,0,1,1.381,1.381h0a1.385,1.385,0,0,1-1.381,1.381H9.156a1.385,1.385,0,0,1-1.381-1.381h0A1.385,1.385,0,0,1,9.156,26.8Z" transform="translate(-2.25 -3.122)" fill="#ff5a61"/>
</svg>
