<svg xmlns="http://www.w3.org/2000/svg" width="39.825" height="34.847" viewBox="0 0 39.825 34.847">
  <path id="Icon_awesome-wallet" data-name="Icon awesome-wallet" d="M35.873,9.717H6.223a1.245,1.245,0,0,1,0-2.489H36.091a1.244,1.244,0,0,0,1.245-1.245A3.734,3.734,0,0,0,33.6,2.25H4.978A4.978,4.978,0,0,0,0,7.228V32.119A4.978,4.978,0,0,0,4.978,37.1h30.9a3.851,3.851,0,0,0,3.951-3.734V13.451A3.851,3.851,0,0,0,35.873,9.717ZM32.358,25.9a2.489,2.489,0,1,1,2.489-2.489A2.489,2.489,0,0,1,32.358,25.9Z" transform="translate(0 -2.25)"/>
</svg>
