<svg xmlns="http://www.w3.org/2000/svg" width="26.272" height="30.714" viewBox="0 0 26.272 30.714">
  <path id="Icon_metro-paypal" data-name="Icon metro-paypal" d="M15.7,19.6h2.831c6.15,0,9.639-2.769,10.75-8.463.036-.188.068-.369.1-.549a9.01,9.01,0,0,0,.106-1.065c.01-.229.017-.363.015-.49a4.511,4.511,0,0,0-.369-1.773A6.1,6.1,0,0,0,28.078,5.69c-1.455-1.655-3.991-2.606-7.02-2.606H11.413A1.381,1.381,0,0,0,10.05,4.25L8.309,15.462,6.144,29.429a.829.829,0,0,0,.819.957h4.73l1.449-8.6A2.577,2.577,0,0,1,15.7,19.6ZM31.228,11.77c-1.351,6.434-5.728,9.849-12.7,9.849H15.7a.565.565,0,0,0-.56.481L13.251,33.8h4.96A1.207,1.207,0,0,0,19.4,32.78l.049-.256.947-6,.061-.331a1.207,1.207,0,0,1,1.193-1.019H22.4c4.863,0,8.67-1.976,9.782-7.689.457-2.355.225-4.324-.959-5.72Z" transform="translate(-6.134 -3.085)"/>
</svg>
