<svg id="kitchen" xmlns="http://www.w3.org/2000/svg" width="54" height="48.516" viewBox="0 0 54 48.516">
  <path id="Path_45345" data-name="Path 45345" d="M308.109,281.055A1.055,1.055,0,1,1,307.055,280,1.055,1.055,0,0,1,308.109,281.055Zm0,0" transform="translate(-273.727 -250.469)"/>
  <path id="Path_45346" data-name="Path 45346" d="M248.109,281.055A1.055,1.055,0,1,1,247.055,280,1.055,1.055,0,0,1,248.109,281.055Zm0,0" transform="translate(-220.055 -250.469)"/>
  <path id="Path_45347" data-name="Path 45347" d="M188.109,281.055A1.055,1.055,0,1,1,187.055,280,1.055,1.055,0,0,1,188.109,281.055Zm0,0" transform="translate(-166.383 -250.469)"/>
  <path id="Path_45348" data-name="Path 45348" d="M52.945,240H1.055A1.055,1.055,0,0,0,0,241.055v21.094A1.055,1.055,0,0,0,1.055,263.2H52.945A1.055,1.055,0,0,0,54,262.148V241.055A1.055,1.055,0,0,0,52.945,240Zm-1.055,8.438H38.6v-6.328H51.891Zm-34.383-6.328H36.492v18.984H17.508Zm-2.109,0v6.328H2.109v-6.328ZM2.109,250.547H15.4v10.547H2.109ZM38.6,261.094V250.547H51.891v10.547Zm0,0" transform="translate(0 -214.688)"/>
  <path id="Path_45349" data-name="Path 45349" d="M404.273,360h-4.219a1.055,1.055,0,0,0,0,2.109h4.219a1.055,1.055,0,0,0,0-2.109Zm0,0" transform="translate(-356.918 -322.031)"/>
  <path id="Path_45350" data-name="Path 45350" d="M400.055,282.109h4.219a1.055,1.055,0,0,0,0-2.109h-4.219a1.055,1.055,0,0,0,0,2.109Zm0,0" transform="translate(-356.918 -250.469)"/>
  <path id="Path_45351" data-name="Path 45351" d="M400.055,62.109h4.219a1.055,1.055,0,0,0,0-2.109h-4.219a1.055,1.055,0,0,0,0,2.109Zm0,0" transform="translate(-356.918 -53.672)"/>
  <path id="Path_45352" data-name="Path 45352" d="M58.273,60H54.055a1.055,1.055,0,0,0,0,2.109h4.219a1.055,1.055,0,0,0,0-2.109Zm0,0" transform="translate(-47.41 -53.672)"/>
  <path id="Path_45353" data-name="Path 45353" d="M54.055,282.109h4.219a1.055,1.055,0,0,0,0-2.109H54.055a1.055,1.055,0,0,0,0,2.109Zm0,0" transform="translate(-47.41 -250.469)"/>
  <path id="Path_45354" data-name="Path 45354" d="M58.273,360H54.055a1.055,1.055,0,0,0,0,2.109h4.219a1.055,1.055,0,0,0,0-2.109Zm0,0" transform="translate(-47.41 -322.031)"/>
  <path id="Path_45355" data-name="Path 45355" d="M199.711,320H187.055A1.055,1.055,0,0,0,186,321.055v8.438a1.055,1.055,0,0,0,1.055,1.055h12.656a1.055,1.055,0,0,0,1.055-1.055v-8.437A1.055,1.055,0,0,0,199.711,320Zm-1.055,8.438H188.109v-6.328h10.547Zm0,0" transform="translate(-166.383 -286.25)"/>
  <path id="Path_45356" data-name="Path 45356" d="M227.055,362.109h4.219a1.055,1.055,0,0,0,0-2.109h-4.219a1.055,1.055,0,0,0,0,2.109Zm0,0" transform="translate(-202.164 -322.031)"/>
  <path id="Path_45357" data-name="Path 45357" d="M362.453,0h-15.4A1.055,1.055,0,0,0,346,1.055V11.6a1.055,1.055,0,0,0,1.055,1.055h15.4a1.055,1.055,0,0,0,1.055-1.055V1.055A1.055,1.055,0,0,0,362.453,0ZM361.4,10.547H348.109V2.109H361.4Zm0,0" transform="translate(-309.508)"/>
  <path id="Path_45358" data-name="Path 45358" d="M1.055,12.656h15.4A1.055,1.055,0,0,0,17.508,11.6V1.055A1.055,1.055,0,0,0,16.453,0H1.055A1.055,1.055,0,0,0,0,1.055V11.6A1.055,1.055,0,0,0,1.055,12.656ZM2.109,2.109H15.4v8.438H2.109Zm0,0"/>
  <path id="Path_45359" data-name="Path 45359" d="M146.31,17.184a1.055,1.055,0,0,0,.746,1.8h6.328a1.055,1.055,0,1,0,0-2.109H149.6l4.219-4.219h7.564l4.219,4.219h-3.782a1.055,1.055,0,1,0,0,2.109h6.328a1.055,1.055,0,0,0,.746-1.8l-6.019-6.02V1.055A1.055,1.055,0,0,0,161.821,0h-8.437a1.055,1.055,0,0,0-1.055,1.055v10.11ZM160.767,2.11v8.437h-6.328V2.11Zm0,0" transform="translate(-130.603 0)"/>
  <path id="Path_45360" data-name="Path 45360" d="M248.109,161.055A1.055,1.055,0,1,1,247.055,160,1.055,1.055,0,0,1,248.109,161.055Zm0,0" transform="translate(-220.055 -143.125)"/>
</svg>
