<svg xmlns="http://www.w3.org/2000/svg" xmlns:xlink="http://www.w3.org/1999/xlink" width="292.565" height="302.243" viewBox="0 0 292.565 302.243">
  <defs>
    <clipPath id="clip-path">
      <path id="Path_1235" data-name="Path 1235" d="M146.283,0c80.79,0,146.283,65.308,146.283,145.869,0,36.655-18.309,115.862-40.724,141.517-26.792,30.664-61.528,4.352-105.558,4.352C65.493,291.739,0,226.431,0,145.869S65.493,0,146.283,0Z" transform="translate(21 92)" fill="#fff"/>
    </clipPath>
  </defs>
  <g id="Illustration" transform="translate(-21 -92)" clip-path="url(#clip-path)">
    <g id="Group_674" data-name="Group 674" transform="matrix(1, 0.017, -0.017, 1, 54.477, 142.84)">
      <g id="Group_617" data-name="Group 617" transform="translate(18.599 2.631)">
        <g id="Group_616" data-name="Group 616" transform="translate(0 0)">
          <g id="Group_615" data-name="Group 615">
            <g id="Group_612" data-name="Group 612">
              <g id="Group_611" data-name="Group 611">
                <path id="Path_1190" data-name="Path 1190" d="M92.592,224.269,16.5,223.917A16.576,16.576,0,0,1,0,207.272L.807,16.506A16.575,16.575,0,0,1,17.458,0L93.552.351A16.576,16.576,0,0,1,110.05,17l-.806,190.766A16.575,16.575,0,0,1,92.592,224.269Z" fill="#06354d"/>
              </g>
            </g>
            <g id="Group_614" data-name="Group 614" transform="translate(5.053 6.584)">
              <g id="Group_613" data-name="Group 613" transform="translate(0 0)">
                <path id="Path_1191" data-name="Path 1191" d="M88.391.35,73.637.283a3.665,3.665,0,0,0-3.6,3.729l-.012,2.676a3.665,3.665,0,0,1-3.6,3.729l-28.757-.133a3.669,3.669,0,0,1-3.567-3.762l.012-2.676A3.669,3.669,0,0,0,30.55.084L25.362.06,12.45,0A11.609,11.609,0,0,0,.787,11.56L0,197.762A11.609,11.609,0,0,0,11.555,209.42l75.941.35a11.609,11.609,0,0,0,11.662-11.56l.787-186.2A11.609,11.609,0,0,0,88.391.35Z" fill="#fff"/>
              </g>
            </g>
          </g>
        </g>
      </g>
      <g id="Group_670" data-name="Group 670" transform="translate(125.397 0)">
        <path id="Path_1225" data-name="Path 1225" d="M3.943,0,2.549,2.549,0,3.944,2.549,5.337,3.943,7.885,5.338,5.337,7.887,3.944,5.338,2.549Z" transform="translate(0 0)" fill="#e8505b"/>
      </g>
      <g id="Group_671" data-name="Group 671" transform="translate(6.127 65.601)">
        <path id="Path_1226" data-name="Path 1226" d="M3.943,0,2.549,2.549,0,3.944,2.549,5.337,3.943,7.885,5.338,5.337,7.887,3.944,5.338,2.549Z" transform="translate(0 0)" fill="#e8505b"/>
      </g>
      <g id="Group_672" data-name="Group 672" transform="translate(137.084 10.815)">
        <path id="Path_1227" data-name="Path 1227" d="M2.422,0,1.564,1.568,0,2.424l1.564.857.858,1.566L3.28,3.28l1.564-.857L3.28,1.568Z" transform="translate(0 0)" fill="#e8505b"/>
      </g>
      <g id="Group_673" data-name="Group 673" transform="translate(0 50.942)">
        <path id="Path_1228" data-name="Path 1228" d="M2.422,0,1.565,1.568,0,2.424l1.565.856.858,1.566L3.28,3.28l1.564-.856L3.28,1.568Z" transform="translate(0 0)" fill="#e8505b"/>
      </g>
      <rect id="Rectangle_87" data-name="Rectangle 87" width="69.929" height="19.882" rx="5" transform="translate(33.594 69.244)" fill="#a4a4a4"/>
      <rect id="Rectangle_88" data-name="Rectangle 88" width="124.09" height="21.939" rx="5" transform="translate(68.129 34.092)" fill="#a4a4a4"/>
    </g>
    <g id="Group_610" data-name="Group 610" transform="translate(92.902 171.4)">
      <g id="Group_404" data-name="Group 404" transform="translate(146.68 261.28)">
        <g id="Group_373" data-name="Group 373">
          <g id="Group_372" data-name="Group 372">
            <g id="Group_371" data-name="Group 371">
              <g id="Group_370" data-name="Group 370">
                <path id="Path_1123" data-name="Path 1123" d="M410.868,412.19l-8.541-6.715L414.8,389.4l12.6,9.691-.709,1.047c-3.2,4.627-16.578,23.3-19.78,25.571C403.342,428.237,410.868,412.19,410.868,412.19Z" transform="translate(-402.327 -389.398)" fill="#e8505b"/>
              </g>
            </g>
          </g>
        </g>
        <g id="Group_378" data-name="Group 378" transform="translate(3.503 9.344)">
          <g id="Group_377" data-name="Group 377">
            <g id="Group_376" data-name="Group 376">
              <g id="Group_375" data-name="Group 375">
                <g id="Group_374" data-name="Group 374">
                  <path id="Path_1124" data-name="Path 1124" d="M405.348,424.178c-.151-.118,4.431-6.2,10.234-13.579s10.631-13.268,10.783-13.148-4.431,6.2-10.235,13.579S405.5,424.3,405.348,424.178Z" transform="translate(-405.345 -397.449)" fill="#263238"/>
                </g>
              </g>
            </g>
          </g>
        </g>
        <g id="Group_383" data-name="Group 383" transform="translate(7.58 24.004)">
          <g id="Group_382" data-name="Group 382">
            <g id="Group_381" data-name="Group 381">
              <g id="Group_380" data-name="Group 380">
                <g id="Group_379" data-name="Group 379">
                  <path id="Path_1125" data-name="Path 1125" d="M411.339,410.52c-.03.193-.584.262-1.243.256s-1.21-.088-1.237-.28.527-.424,1.244-.415S411.371,410.333,411.339,410.52Z" transform="translate(-408.858 -410.081)" fill="#263238"/>
                </g>
              </g>
            </g>
          </g>
        </g>
        <g id="Group_388" data-name="Group 388" transform="translate(7.107 25.257)">
          <g id="Group_387" data-name="Group 387">
            <g id="Group_386" data-name="Group 386">
              <g id="Group_385" data-name="Group 385">
                <g id="Group_384" data-name="Group 384">
                  <path id="Path_1126" data-name="Path 1126" d="M411.164,411.81c-.055.187-.667.169-1.39.073s-1.32-.245-1.323-.439.635-.357,1.416-.251S411.22,411.629,411.164,411.81Z" transform="translate(-408.451 -411.16)" fill="#263238"/>
                </g>
              </g>
            </g>
          </g>
        </g>
        <g id="Group_393" data-name="Group 393" transform="translate(19.698 7.371)">
          <g id="Group_392" data-name="Group 392">
            <g id="Group_391" data-name="Group 391">
              <g id="Group_390" data-name="Group 390">
                <g id="Group_389" data-name="Group 389">
                  <path id="Path_1127" data-name="Path 1127" d="M420.277,402.5c-.092.027-.292-.338-.522-.968a7.145,7.145,0,0,1-.453-2.624,4.115,4.115,0,0,1,.945-2.549c.482-.536.927-.663.964-.587.059.088-.255.352-.571.881a4.877,4.877,0,0,0-.643,2.283,12.886,12.886,0,0,0,.233,2.473C420.335,402.053,420.371,402.472,420.277,402.5Z" transform="translate(-419.299 -395.749)" fill="#263238"/>
                </g>
              </g>
            </g>
          </g>
        </g>
        <g id="Group_398" data-name="Group 398" transform="translate(8.41 22.067)">
          <g id="Group_397" data-name="Group 397">
            <g id="Group_396" data-name="Group 396">
              <g id="Group_395" data-name="Group 395">
                <g id="Group_394" data-name="Group 394">
                  <path id="Path_1128" data-name="Path 1128" d="M409.582,409.575c-.072-.181.28-.489.733-.78s.887-.477,1.019-.335-.125.594-.645.923S409.651,409.751,409.582,409.575Z" transform="translate(-409.573 -408.412)" fill="#263238"/>
                </g>
              </g>
            </g>
          </g>
        </g>
        <g id="Group_403" data-name="Group 403" transform="translate(7.748 20.417)">
          <g id="Group_402" data-name="Group 402">
            <g id="Group_401" data-name="Group 401">
              <g id="Group_400" data-name="Group 400">
                <g id="Group_399" data-name="Group 399">
                  <path id="Path_1129" data-name="Path 1129" d="M409.045,408.9c-.139-.132.08-.653.493-1.164s.876-.836,1.035-.728-.063.63-.493,1.165S409.184,409.036,409.045,408.9Z" transform="translate(-409.003 -406.99)" fill="#263238"/>
                </g>
              </g>
            </g>
          </g>
        </g>
      </g>
      <g id="Group_413" data-name="Group 413" transform="translate(76.265 145.926)">
        <g id="Group_406" data-name="Group 406">
          <g id="Group_405" data-name="Group 405">
            <path id="Path_1130" data-name="Path 1130" d="M364.023,290.006s-25.484,67.711-22.05,80.362,72.161,62.88,72.161,62.88l18.66-26.854s-53.605-42.424-53.775-44.768,21.282-58.6,21.282-58.6Z" transform="translate(-341.655 -290.006)" fill="#263238"/>
          </g>
        </g>
        <g id="Group_409" data-name="Group 409" transform="translate(13.391 44.584)">
          <g id="Group_408" data-name="Group 408">
            <g id="Group_407" data-name="Group 407">
              <path id="Path_1131" data-name="Path 1131" d="M411.105,406.427a.879.879,0,0,1-.241-.133l-.673-.442-2.553-1.749c-2.2-1.544-5.376-3.792-9.237-6.654-7.734-5.709-18.233-13.857-29.377-23.4-2.791-2.38-5.488-4.739-8.077-7.032l-3.8-3.393a14.318,14.318,0,0,1-3.276-3.716,6.829,6.829,0,0,1-.482-4.7c.3-1.5.677-2.9,1.034-4.274.733-2.733,1.465-5.261,2.133-7.569l3.175-10.926q.524-1.88.832-2.979c.086-.31.158-.564.217-.774a.139.139,0,1,1,.061.014c-.043.215-.094.475-.158.79-.15.692-.39,1.708-.72,3.012-.662,2.605-1.7,6.355-2.985,10.984-.642,2.314-1.349,4.849-2.058,7.58-.345,1.364-.715,2.784-1,4.242a6.284,6.284,0,0,0,.45,4.337,13.872,13.872,0,0,0,3.167,3.542l3.8,3.38c2.593,2.285,5.289,4.637,8.078,7.015C380.56,383.108,391,391.3,398.664,397.1l9.114,6.809,2.485,1.844.637.493C411.042,406.356,411.111,406.419,411.105,406.427Z" transform="translate(-353.192 -328.421)" fill="#455a64"/>
            </g>
          </g>
        </g>
        <g id="Group_412" data-name="Group 412" transform="translate(65.077 109.324)">
          <g id="Group_411" data-name="Group 411">
            <g id="Group_410" data-name="Group 410">
              <path id="Path_1132" data-name="Path 1132" d="M397.731,405.65c-.137-.1,3.405-4.989,7.909-10.911s8.268-10.639,8.405-10.535-3.4,4.988-7.911,10.911S397.867,405.753,397.731,405.65Z" transform="translate(-397.727 -384.202)" fill="#455a64"/>
            </g>
          </g>
        </g>
      </g>
      <g id="Group_414" data-name="Group 414" transform="translate(131.771 17.162)">
        <path id="Path_1133" data-name="Path 1133" d="M401.348,179.059c2.274,4.555,3.475,8.5,7.991,10.846,2.035,1.057,4.516,1.661,5.743,3.6,1.336,2.109.707,5.165,2.394,7,2.455,2.675,7.471.508,10.227,2.871,2.459,2.11,1.668,6.636,4.321,8.5,1.492,1.046,3.526.812,5.225,1.47,2.785,1.079,4.1,4.292,4.472,7.256a12.66,12.66,0,0,1-.877,7.019,7.175,7.175,0,0,1-5.455,4.169c-3.159.332-6.738-1.848-9.3.036a12.661,12.661,0,0,0-2.13,2.6,7.975,7.975,0,0,1-13.1-.827c-1.764-2.94-1.649-7-4.235-9.249-1.351-1.178-3.178-1.6-4.857-2.228s-3.416-1.669-3.92-3.389a14.934,14.934,0,0,0-2.43-4.184c-1.293-1.932-3.015.428-4.724-.523s-1.061-2.814-1.2-4.765" transform="translate(-389.48 -179.059)" fill="#263238"/>
      </g>
      <g id="Group_418" data-name="Group 418" transform="translate(10.152 75.576)">
        <g id="Group_417" data-name="Group 417">
          <g id="Group_416" data-name="Group 416">
            <path id="Path_1134" data-name="Path 1134" d="M388.162,236.755l-22.027-7.365S356.4,257.432,353.418,257.7c-16.528,1.508-34.213-3.973-40.414-6.138-.629-.707-1.347-1.555-2.148-2.6A9.9,9.9,0,0,1,309.3,246a15.157,15.157,0,0,1-.884-4.084,1.3,1.3,0,0,0-2.228-1.021c-.716.925-.9,4.467.733,8.277s-4.143.779-6.267-.288-8.852-4.059-9.7-3.666c-1.24.578-.851,2.011,1.3,3.027,2.173,1.029,8.368,4.517,7.749,5.611-.607,1.078-11.347-4.5-11.347-4.5s-2.1-1.563-2.859-.323c-1.363,2.239,10.491,7.328,11.631,7.784.791.317.164,1.531-.67,1.144-.857-.4-10.582-5.813-11.992-3.547-1.081,1.739,9.712,4.277,11.106,6.52s-7.989-2.756-8.954-1.053c-.36.635-.54,1.157,5.263,3.251a123.385,123.385,0,0,0,12.934,3.3l-.021.06s57.966,25.922,70.468.933C388.826,240.916,388.162,236.755,388.162,236.755Z" transform="translate(-284.69 -229.39)" fill="#e5baab"/>
          </g>
        </g>
      </g>
      <g id="Group_423" data-name="Group 423" transform="translate(78.858 59.724)">
        <g id="Group_422" data-name="Group 422">
          <g id="Group_421" data-name="Group 421">
            <g id="Group_420" data-name="Group 420">
              <path id="Path_1135" data-name="Path 1135" d="M400.433,215.732h0l9.621.173,7.642,21.9-6.223,25.091c-1.819,7.331,6.435,22,6.223,30.085l-53.967,8.74-1.137-36.038-.027-1.208-18.676-9.32,6.163-15.1c9.482-22.213,26.04-23.565,26.04-23.565Z" transform="translate(-343.889 -215.732)" fill="#e8505b"/>
            </g>
          </g>
        </g>
      </g>
      <g id="Group_427" data-name="Group 427" transform="translate(78.858 59.724)" opacity="0.95">
        <g id="Group_426" data-name="Group 426">
          <g id="Group_425" data-name="Group 425">
            <g id="Group_424" data-name="Group 424">
              <path id="Path_1136" data-name="Path 1136" d="M400.433,215.732h0l9.621.173,7.642,21.9-6.223,25.091c-1.819,7.331,6.435,22,6.223,30.085l-53.967,8.74-1.137-36.038-.027-1.208-18.676-9.32,6.163-15.1c9.482-22.213,26.04-23.565,26.04-23.565Z" transform="translate(-343.889 -215.732)" fill="#0d0405"/>
            </g>
          </g>
        </g>
      </g>
      <g id="Group_438" data-name="Group 438" transform="translate(92.903 79.155)">
        <g id="Group_437" data-name="Group 437">
          <g id="Group_436" data-name="Group 436">
            <g id="Group_435" data-name="Group 435">
              <g id="Group_434" data-name="Group 434">
                <path id="Path_1139" data-name="Path 1139" d="M360.944,261.518a3.3,3.3,0,0,1-1.158-.612,9.319,9.319,0,0,1-2.5-2.572,8.211,8.211,0,0,1-1.271-5.154,11.41,11.41,0,0,1,2.1-6.156,11.286,11.286,0,0,1,3.826-3.42l-.164.225c.446-3.309.851-6.153,1.162-8.167a20.3,20.3,0,0,1,.6-3.188,20.7,20.7,0,0,1-.23,3.239c-.209,2.028-.536,4.883-.942,8.2l-.017.144-.146.081a11.159,11.159,0,0,0-5.61,9.078,7.955,7.955,0,0,0,1.072,4.887,10.225,10.225,0,0,0,2.268,2.61C360.572,261.237,360.965,261.477,360.944,261.518Z" transform="translate(-355.991 -232.474)" fill="#455a64"/>
              </g>
            </g>
          </g>
        </g>
      </g>
      <g id="Group_443" data-name="Group 443" transform="translate(98.034 80.17)">
        <g id="Group_442" data-name="Group 442">
          <g id="Group_441" data-name="Group 441">
            <g id="Group_440" data-name="Group 440">
              <g id="Group_439" data-name="Group 439">
                <path id="Path_1140" data-name="Path 1140" d="M362.271,237.066c-.154.075-.686-.7-1.189-1.72s-.783-1.916-.629-1.993.686.7,1.187,1.72S362.424,236.991,362.271,237.066Z" transform="translate(-360.412 -233.349)" fill="#455a64"/>
              </g>
            </g>
          </g>
        </g>
      </g>
      <g id="Group_447" data-name="Group 447" transform="translate(107.459 10.706)">
        <g id="Group_446" data-name="Group 446">
          <g id="Group_445" data-name="Group 445">
            <path id="Path_1141" data-name="Path 1141" d="M395.827,222.83l1.66-37.926L382.426,173.5l-13.69,6.693s-.457,17.19,0,24.643,7.972,8.249,7.972,8.249-.175,4.368-.348,8.959a9.74,9.74,0,0,0,9.827,10.105h0A9.741,9.741,0,0,0,395.827,222.83Z" transform="translate(-368.533 -173.496)" fill="#e5baab"/>
          </g>
        </g>
      </g>
      <g id="Group_475" data-name="Group 475" transform="translate(115.63 46.956)">
        <g id="Group_474" data-name="Group 474">
          <g id="Group_473" data-name="Group 473">
            <path id="Path_1147" data-name="Path 1147" d="M375.573,208.066a18.61,18.61,0,0,0,9.875-3.336s-2.239,5.472-9.713,5.165Z" transform="translate(-375.573 -204.73)" fill="#d78776"/>
          </g>
        </g>
      </g>
      <g id="Group_479" data-name="Group 479" transform="translate(104.409 5.699)">
        <g id="Group_478" data-name="Group 478">
          <g id="Group_477" data-name="Group 477">
            <path id="Path_1148" data-name="Path 1148" d="M419.594,207.025a5.353,5.353,0,0,1-2.7-.61,7.52,7.52,0,0,1-2.946-2.856,30.927,30.927,0,0,1-2.2-4.722c-1.392-3.464-2.442-6.68-3.153-9.024-.113-.371-.214-.71-.311-1.034-.063-.4-.127-.756-.2-1.017-4.067-15.545-17.729-18.443-20.432-18.443-2.9,0-7.97-1.593-15.362,6.087a16.709,16.709,0,0,0-2.8,3.871,16.654,16.654,0,0,0-3.294,7.019,8.447,8.447,0,0,0-.173,3.7c.14.006.164-1.408.743-3.565a17.962,17.962,0,0,1,1.43-3.67,14.161,14.161,0,0,0,.758,8.585l2.652-.729,9.492-3.23c-.864-2.941.406-6.591,1.125-8.294l.071-.065a14.835,14.835,0,0,0,12.549,12.186l1.755,24.413c12.619-2.7,12.332-19.584,12.252-23.013.571,1.934,1.316,4.154,2.252,6.481a28.059,28.059,0,0,0,2.308,4.811,7.712,7.712,0,0,0,3.274,2.954,5.146,5.146,0,0,0,2.943.435,1.922,1.922,0,0,0,1.017-.391C420.621,206.848,420.259,206.98,419.594,207.025Z" transform="translate(-365.905 -169.182)" fill="#263238"/>
          </g>
        </g>
      </g>
      <g id="Group_489" data-name="Group 489" transform="translate(137.185 31.245)">
        <g id="Group_488" data-name="Group 488">
          <g id="Group_487" data-name="Group 487">
            <g id="Group_486" data-name="Group 486">
              <path id="Path_1150" data-name="Path 1150" d="M394.164,197.2a9.262,9.262,0,0,1,.4-3.68,3.472,3.472,0,0,1,2.681-2.315,2.938,2.938,0,0,1,3.027,2.447,3.618,3.618,0,0,1-1.844,3.584,4.74,4.74,0,0,1-4.14.116" transform="translate(-394.145 -191.193)" fill="#e5baab"/>
            </g>
          </g>
        </g>
      </g>
      <g id="Group_530" data-name="Group 530" transform="translate(114.229 321.57)">
        <g id="Group_499" data-name="Group 499">
          <g id="Group_498" data-name="Group 498">
            <g id="Group_497" data-name="Group 497">
              <g id="Group_496" data-name="Group 496">
                <path id="Path_1152" data-name="Path 1152" d="M388.093,452.34V441.477l20.35-.131.168,15.893-1.26.089c-5.615.348-28.567,1.373-32.328.258C370.828,456.344,388.093,452.34,388.093,452.34Z" transform="translate(-374.366 -441.346)" fill="#e8505b"/>
              </g>
            </g>
          </g>
        </g>
        <g id="Group_504" data-name="Group 504" transform="translate(0.175 14.899)">
          <g id="Group_503" data-name="Group 503">
            <g id="Group_502" data-name="Group 502">
              <g id="Group_501" data-name="Group 501">
                <g id="Group_500" data-name="Group 500">
                  <path id="Path_1153" data-name="Path 1153" d="M374.517,454.531c0-.192,7.613-.348,17-.348s17,.157,17,.348-7.61.348-17,.348S374.517,454.723,374.517,454.531Z" transform="translate(-374.517 -454.183)" fill="#263238"/>
                </g>
              </g>
            </g>
          </g>
        </g>
        <g id="Group_509" data-name="Group 509" transform="translate(11.822 11.213)">
          <g id="Group_508" data-name="Group 508">
            <g id="Group_507" data-name="Group 507">
              <g id="Group_506" data-name="Group 506">
                <g id="Group_505" data-name="Group 505">
                  <path id="Path_1154" data-name="Path 1154" d="M386.1,453.006c-.171.1-.566-.3-.97-.818s-.678-1.006-.544-1.147.659.153,1.1.722S386.267,452.915,386.1,453.006Z" transform="translate(-384.552 -451.007)" fill="#263238"/>
                </g>
              </g>
            </g>
          </g>
        </g>
        <g id="Group_514" data-name="Group 514" transform="translate(10.637 11.547)">
          <g id="Group_513" data-name="Group 513">
            <g id="Group_512" data-name="Group 512">
              <g id="Group_511" data-name="Group 511">
                <g id="Group_510" data-name="Group 510">
                  <path id="Path_1155" data-name="Path 1155" d="M384.965,453.675c-.181.072-.545-.421-.918-1.048s-.622-1.188-.472-1.31.673.277,1.074.956S385.143,453.607,384.965,453.675Z" transform="translate(-383.531 -451.295)" fill="#263238"/>
                </g>
              </g>
            </g>
          </g>
        </g>
        <g id="Group_519" data-name="Group 519" transform="translate(28.028 11.347)">
          <g id="Group_518" data-name="Group 518">
            <g id="Group_517" data-name="Group 517">
              <g id="Group_516" data-name="Group 516">
                <g id="Group_515" data-name="Group 515">
                  <path id="Path_1156" data-name="Path 1156" d="M398.535,454.949c-.077-.056.085-.44.439-1.01a7.16,7.16,0,0,1,1.783-1.977,4.111,4.111,0,0,1,2.587-.833c.72.046,1.094.319,1.058.395-.034.1-.434.016-1.046.1a4.87,4.87,0,0,0-2.192.905,13.032,13.032,0,0,0-1.8,1.712C398.92,454.721,398.612,455.008,398.535,454.949Z" transform="translate(-398.516 -451.123)" fill="#263238"/>
                </g>
              </g>
            </g>
          </g>
        </g>
        <g id="Group_524" data-name="Group 524" transform="translate(13.292 11.079)">
          <g id="Group_523" data-name="Group 523">
            <g id="Group_522" data-name="Group 522">
              <g id="Group_521" data-name="Group 521">
                <g id="Group_520" data-name="Group 520">
                  <path id="Path_1157" data-name="Path 1157" d="M385.835,450.982c.1-.168.556-.081,1.067.1s.923.4.894.594-.544.268-1.125.063S385.738,451.146,385.835,450.982Z" transform="translate(-385.819 -450.892)" fill="#263238"/>
                </g>
              </g>
            </g>
          </g>
        </g>
        <g id="Group_529" data-name="Group 529" transform="translate(13.627 9.787)">
          <g id="Group_528" data-name="Group 528">
            <g id="Group_527" data-name="Group 527">
              <g id="Group_526" data-name="Group 526">
                <g id="Group_525" data-name="Group 525">
                  <path id="Path_1158" data-name="Path 1158" d="M386.108,450.111c.017-.191.564-.341,1.22-.332s1.2.172,1.212.364-.534.34-1.221.332S386.089,450.3,386.108,450.111Z" transform="translate(-386.108 -449.779)" fill="#263238"/>
                </g>
              </g>
            </g>
          </g>
        </g>
      </g>
      <g id="Group_535" data-name="Group 535" transform="translate(98.633 137.225)">
        <g id="Group_534" data-name="Group 534">
          <g id="Group_533" data-name="Group 533">
            <g id="Group_532" data-name="Group 532">
              <g id="Group_531" data-name="Group 531">
                <path id="Path_1159" data-name="Path 1159" d="M372.078,289.348l-11.15,1.862,6.418,7.9c1.844,37.173,1.4,73.179,3.1,91.134.259,2.724,11.768,88.248,10.626,86.246l33.893,1.414-10.116-85.888,4.8-76.281a40.387,40.387,0,0,0,4.242-29.791l-.84-3.43" transform="translate(-360.928 -282.509)" fill="#404040"/>
              </g>
            </g>
          </g>
        </g>
      </g>
      <g id="Group_540" data-name="Group 540" transform="translate(0 58.671)">
        <g id="Group_537" data-name="Group 537" transform="translate(0 0)">
          <g id="Group_536" data-name="Group 536">
            <path id="Rectangle_80" data-name="Rectangle 80" d="M7.759,0h98.9a7.759,7.759,0,0,1,7.759,7.759V168.2a7.759,7.759,0,0,1-7.759,7.759H7.758A7.758,7.758,0,0,1,0,168.2V7.759A7.759,7.759,0,0,1,7.759,0Z" transform="translate(0 109.851) rotate(-73.753)" fill="#e8505b"/>
          </g>
        </g>
      </g>
      <g id="Group_542" data-name="Group 542" transform="translate(144.802 110.657)">
        <g id="Group_541" data-name="Group 541">
          <path id="Path_1160" data-name="Path 1160" d="M424.516,275.163a12.144,12.144,0,1,1-8.262-15.059A12.147,12.147,0,0,1,424.516,275.163Z" transform="translate(-400.709 -259.617)" fill="#fff"/>
        </g>
      </g>
      <g id="Group_544" data-name="Group 544" transform="translate(158.252 114.152)">
        <g id="Group_543" data-name="Group 543">
          <path id="Path_1161" data-name="Path 1161" d="M425.063,288.124a12.834,12.834,0,0,1-3.584-.514,12.67,12.67,0,1,1,3.584.514Zm-.035-24.3a11.568,11.568,0,1,0,3.247.468A11.6,11.6,0,0,0,425.029,263.822Z" transform="translate(-412.298 -262.629)" fill="#fff"/>
        </g>
      </g>
      <g id="Group_560" data-name="Group 560" transform="translate(22.814 132.343)">
        <g id="Group_545" data-name="Group 545">
          <path id="Path_1162" data-name="Path 1162" d="M299.3,279.228l-2.733,9.378-.963-.281,2.484-8.521-2.211-.643.25-.859Z" transform="translate(-295.6 -278.302)" fill="#fff"/>
        </g>
        <g id="Group_546" data-name="Group 546" transform="translate(4.032 2.389)">
          <path id="Path_1163" data-name="Path 1163" d="M305.9,290.228l-.25.858-6.577-1.917.2-.682,5.011-2.681c1.363-.738,1.748-1.31,1.934-1.952.318-1.086-.251-1.978-1.684-2.4a3.314,3.314,0,0,0-2.864.3l-.512-.788a4.4,4.4,0,0,1,3.714-.371c1.9.554,2.826,1.871,2.37,3.439-.262.9-.778,1.619-2.4,2.484l-4.1,2.206Z" transform="translate(-299.074 -280.36)" fill="#fff"/>
        </g>
        <g id="Group_547" data-name="Group 547" transform="translate(13.067 5.692)">
          <path id="Path_1164" data-name="Path 1164" d="M314.992,291.041l-1.877-.547-.718,2.465-.966-.282.718-2.465-5.291-1.541.2-.7,6.781-4.768,1.072.312-6.562,4.659,4.072,1.187.634-2.171.938.273-.633,2.171,1.877.548Z" transform="translate(-306.859 -283.206)" fill="#fff"/>
        </g>
        <g id="Group_548" data-name="Group 548" transform="translate(27.439 9.88)">
          <path id="Path_1165" data-name="Path 1165" d="M327.374,294.649,325.5,294.1l-.718,2.465-.966-.281.718-2.465-5.291-1.541.2-.7,6.784-4.768,1.071.312-6.561,4.659,4.071,1.187.634-2.171.937.273-.631,2.171,1.875.547Z" transform="translate(-319.242 -286.815)" fill="#fff"/>
        </g>
        <g id="Group_549" data-name="Group 549" transform="translate(36.61 11.549)">
          <path id="Path_1166" data-name="Path 1166" d="M334.387,296.513c-.464,1.595-1.939,2.517-4.233,1.849a5.054,5.054,0,0,1-3.011-2.185l.692-.628a4.243,4.243,0,0,0,2.564,1.925c1.6.463,2.666-.067,3-1.206.352-1.206-.179-2.175-2.565-2.87l-2-.581,1.853-4.563,5.131,1.5-.25.859-4.287-1.25-1.194,2.895,1.207.35C334.123,293.427,334.871,294.851,334.387,296.513Z" transform="translate(-327.144 -288.253)" fill="#fff"/>
        </g>
        <g id="Group_550" data-name="Group 550" transform="translate(46.285 14.789)">
          <path id="Path_1167" data-name="Path 1167" d="M342.329,298.725a3.045,3.045,0,0,1-4.042,1.949c-2.493-.727-3.341-2.849-2.478-5.81.929-3.189,3.155-4.344,5.7-3.6a4.482,4.482,0,0,1,2.076,1.158l-.615.664a3.442,3.442,0,0,0-1.693-.974c-2.023-.59-3.7.331-4.443,2.877-.064.215-.128.485-.182.775a3.124,3.124,0,0,1,3.336-.772C341.849,295.533,342.829,297.01,342.329,298.725Zm-.959-.252c.359-1.233-.321-2.288-1.769-2.708a2.26,2.26,0,0,0-3.009,1.345c-.3,1.033.272,2.261,1.893,2.734A2.14,2.14,0,0,0,341.37,298.473Z" transform="translate(-335.481 -291.044)" fill="#fff"/>
        </g>
        <g id="Group_551" data-name="Group 551" transform="translate(58.697 17.769)">
          <path id="Path_1168" data-name="Path 1168" d="M353.411,302.16c-.457,1.568-1.948,2.443-4.212,1.783a5.091,5.091,0,0,1-3.025-2.19l.692-.628a4.269,4.269,0,0,0,2.59,1.931c1.553.454,2.623-.02,2.962-1.185.327-1.126-.247-2.094-1.989-2.6l-.67-.195.208-.71,3.547-2.5-4.8-1.4.251-.858L355,295.367l-.2.684-3.626,2.566C353.151,299.307,353.849,300.659,353.411,302.16Z" transform="translate(-346.175 -293.612)" fill="#fff"/>
        </g>
        <g id="Group_552" data-name="Group 552" transform="translate(68.518 21.268)">
          <path id="Path_1169" data-name="Path 1169" d="M361.486,304.308a3.045,3.045,0,0,1-4.042,1.949c-2.492-.728-3.343-2.85-2.479-5.811.928-3.189,3.156-4.343,5.7-3.6A4.483,4.483,0,0,1,362.741,298l-.615.664a3.432,3.432,0,0,0-1.693-.974c-2.022-.59-3.7.331-4.443,2.877-.064.215-.128.485-.182.774a3.122,3.122,0,0,1,3.334-.771C361.006,301.115,361.986,302.594,361.486,304.308Zm-.96-.252c.359-1.233-.322-2.288-1.768-2.709a2.262,2.262,0,0,0-3.009,1.346c-.3,1.033.272,2.261,1.892,2.733A2.138,2.138,0,0,0,360.526,304.056Z" transform="translate(-354.637 -296.627)" fill="#fff"/>
        </g>
        <g id="Group_553" data-name="Group 553" transform="translate(78.206 22.878)">
          <path id="Path_1170" data-name="Path 1170" d="M370.689,300.021l-.2.684-6.46,7.551-1.045-.3,6.343-7.4-4.825-1.4-.511,1.752-.953-.277.761-2.611Z" transform="translate(-362.985 -298.014)" fill="#fff"/>
        </g>
        <g id="Group_554" data-name="Group 554" transform="translate(91.614 26.784)">
          <path id="Path_1171" data-name="Path 1171" d="M382.24,303.388l-.2.682-6.46,7.551-1.043-.305,6.341-7.394-4.823-1.407-.512,1.755-.952-.277.761-2.612Z" transform="translate(-374.537 -301.38)" fill="#fff"/>
        </g>
        <g id="Group_555" data-name="Group 555" transform="translate(99.197 30.117)">
          <path id="Path_1172" data-name="Path 1172" d="M388.448,312.382c-.484,1.66-2.192,2.283-4.43,1.631s-3.316-2.087-2.832-3.748a2.439,2.439,0,0,1,2.48-1.778,2.2,2.2,0,0,1-.873-2.492c.445-1.527,2.022-2.1,4-1.523s3.031,1.916,2.588,3.443a2.212,2.212,0,0,1-2.1,1.625A2.463,2.463,0,0,1,388.448,312.382Zm-.988-.3c.335-1.151-.446-2.163-2.108-2.647s-2.85-.046-3.186,1.1c-.34,1.166.427,2.176,2.089,2.66S387.12,313.244,387.46,312.078Zm-1.885-3.412c1.461.425,2.524.024,2.821-.995.308-1.058-.431-1.971-1.837-2.382s-2.506-.031-2.81,1.013S384.114,308.24,385.575,308.666Z" transform="translate(-381.071 -304.252)" fill="#fff"/>
        </g>
        <g id="Group_556" data-name="Group 556" transform="translate(108.534 32.762)">
          <path id="Path_1173" data-name="Path 1173" d="M396.892,312.513c-.93,3.188-3.156,4.343-5.7,3.6a4.484,4.484,0,0,1-2.075-1.158l.614-.664a3.415,3.415,0,0,0,1.693.974c2.023.59,3.7-.332,4.444-2.877.063-.215.127-.487.182-.775a3.124,3.124,0,0,1-3.337.772c-1.862-.543-2.841-2.021-2.341-3.736a3.044,3.044,0,0,1,4.041-1.947C396.9,307.428,397.754,309.551,396.892,312.513Zm-.783-2.249c.3-1.031-.272-2.26-1.9-2.732a2.135,2.135,0,0,0-2.882,1.367c-.361,1.234.32,2.29,1.768,2.712A2.262,2.262,0,0,0,396.108,310.263Z" transform="translate(-389.116 -306.531)" fill="#fff"/>
        </g>
        <g id="Group_557" data-name="Group 557" transform="translate(123.464 35.981)">
          <path id="Path_1174" data-name="Path 1174" d="M405.676,310.228l-2.733,9.38-.963-.282,2.484-8.519-2.211-.645.25-.858Z" transform="translate(-401.98 -309.304)" fill="#fff"/>
        </g>
        <g id="Group_558" data-name="Group 558" transform="translate(127.494 38.368)">
          <path id="Path_1175" data-name="Path 1175" d="M412.28,321.231l-.25.857-6.577-1.917.2-.681,5.011-2.683c1.363-.737,1.748-1.308,1.935-1.951.317-1.085-.252-1.979-1.685-2.4a3.309,3.309,0,0,0-2.864.3l-.512-.789a4.391,4.391,0,0,1,3.714-.371c1.9.554,2.826,1.87,2.369,3.438-.261.9-.776,1.619-2.394,2.486l-4.1,2.206Z" transform="translate(-405.453 -311.361)" fill="#fff"/>
        </g>
        <g id="Group_559" data-name="Group 559" transform="translate(136.033 40.305)">
          <path id="Path_1176" data-name="Path 1176" d="M420.046,321.578c-.457,1.568-1.947,2.443-4.212,1.783a5.081,5.081,0,0,1-3.024-2.189l.692-.629a4.277,4.277,0,0,0,2.59,1.934c1.553.453,2.623-.02,2.962-1.186.327-1.127-.248-2.093-1.99-2.6l-.67-.2.208-.711,3.549-2.5-4.8-1.4.251-.858,6.028,1.757-.2.684-3.625,2.564C419.786,318.726,420.484,320.077,420.046,321.578Z" transform="translate(-412.81 -313.03)" fill="#fff"/>
        </g>
      </g>
      <g id="Group_562" data-name="Group 562" transform="translate(90.054 169.889)">
        <g id="Group_561" data-name="Group 561" transform="translate(0 0)">
          <rect id="Rectangle_82" data-name="Rectangle 82" width="4.241" height="78.238" transform="translate(0 4.072) rotate(-73.757)" fill="#fff"/>
        </g>
      </g>
      <g id="Group_564" data-name="Group 564" transform="translate(124.275 188.681)">
        <g id="Group_563" data-name="Group 563" transform="translate(0 0)">
          <rect id="Rectangle_83" data-name="Rectangle 83" width="4.242" height="40.128" transform="translate(0 4.073) rotate(-73.756)" fill="#fff"/>
        </g>
      </g>
      <g id="Group_566" data-name="Group 566" transform="translate(23.13 100.019)">
        <g id="Group_565" data-name="Group 565" transform="translate(0 0)">
          <path id="Rectangle_84" data-name="Rectangle 84" d="M4.964,0h22.9a4.963,4.963,0,0,1,4.963,4.963v14.6a4.964,4.964,0,0,1-4.964,4.964H4.964A4.964,4.964,0,0,1,0,19.561V4.964A4.964,4.964,0,0,1,4.964,0Z" transform="translate(6.862 0) rotate(16.248)" fill="#263238"/>
        </g>
      </g>
      <g id="Group_568" data-name="Group 568" transform="translate(25.028 107.232)">
        <g id="Group_567" data-name="Group 567">
          <path id="Path_1177" data-name="Path 1177" d="M297.508,266.479l.442-1.51,16.226,4.729a3.538,3.538,0,1,0,1.98-6.793l-16.229-4.729.441-1.51L316.6,261.4a5.111,5.111,0,0,1-2.86,9.814Z" transform="translate(-297.508 -256.666)" fill="#fff"/>
        </g>
      </g>
      <g id="Group_570" data-name="Group 570" transform="translate(46.619 117.317)">
        <g id="Group_569" data-name="Group 569" transform="translate(0 0)">
          <rect id="Rectangle_85" data-name="Rectangle 85" width="1.573" height="11.602" transform="translate(0 1.51) rotate(-73.698)" fill="#fff"/>
        </g>
      </g>
      <g id="Group_572" data-name="Group 572" transform="translate(37.332 81.729)">
        <g id="Group_571" data-name="Group 571" transform="translate(0 0)">
          <rect id="Rectangle_86" data-name="Rectangle 86" width="84.428" height="7.246" transform="matrix(0.96, 0.28, -0.28, 0.96, 2.028, 0)" fill="#fff"/>
        </g>
      </g>
      <g id="Group_575" data-name="Group 575" transform="translate(129.524 0)">
        <g id="Group_574" data-name="Group 574">
          <path id="Path_1178" data-name="Path 1178" d="M391.16,174.1a5.7,5.7,0,0,1-3.479-3.874,5.011,5.011,0,0,1,1.537-4.909,4.475,4.475,0,0,1,5.052-.471,6.414,6.414,0,0,1,2.51,3.524,5.118,5.118,0,0,1,.3,2.886,4.245,4.245,0,0,1-3.124,2.817,12.5,12.5,0,0,1-4.387.118" transform="translate(-387.545 -164.272)" fill="#263238"/>
        </g>
      </g>
      <g id="Group_577" data-name="Group 577" transform="translate(134.12 9.046)">
        <g id="Group_576" data-name="Group 576">
          <path id="Path_1179" data-name="Path 1179" d="M420.437,193.531a3.652,3.652,0,0,0,.07-1.518,3.437,3.437,0,0,0-.809-1.552,4.108,4.108,0,0,0-2-1.15,8.585,8.585,0,0,0-2.867-.2c-1.049.067-2.178.254-3.406.282a6.707,6.707,0,0,1-3.778-.895,6.05,6.05,0,0,1-2.257-3.49,18.545,18.545,0,0,0-3.715-6.666,19.743,19.743,0,0,0-4.807-4.013,27.56,27.56,0,0,0-5.365-2.248c0-.021.145-.009.411.031a9.618,9.618,0,0,1,1.151.234,16.742,16.742,0,0,1,4.021,1.6,19.212,19.212,0,0,1,5.02,4.017,18.607,18.607,0,0,1,3.874,6.845,5.506,5.506,0,0,0,2,3.178,6.207,6.207,0,0,0,3.438.834c1.172-.01,2.3-.178,3.385-.225a8.814,8.814,0,0,1,3.019.3,4.382,4.382,0,0,1,2.137,1.345,3.558,3.558,0,0,1,.785,1.737,2.515,2.515,0,0,1-.108,1.194C420.544,193.425,420.449,193.538,420.437,193.531Z" transform="translate(-391.504 -172.066)" fill="#263238"/>
        </g>
      </g>
      <g id="Group_584" data-name="Group 584" transform="translate(129.503 6.389)">
        <g id="Group_583" data-name="Group 583">
          <g id="Group_582" data-name="Group 582">
            <path id="Path_1181" data-name="Path 1181" d="M396.631,174.676c-.145.127-1.639-1.756-4.193-3.085-2.537-1.365-4.932-1.539-4.91-1.73-.028-.152,2.516-.257,5.2,1.181C395.426,172.451,396.772,174.613,396.631,174.676Z" transform="translate(-387.527 -169.777)" fill="#e8505b"/>
          </g>
        </g>
      </g>
      <g id="Group_593" data-name="Group 593" transform="translate(122.665 201.89)">
        <g id="Group_592" data-name="Group 592">
          <g id="Group_591" data-name="Group 591">
            <path id="Path_1184" data-name="Path 1184" d="M391.531,461.181a1.219,1.219,0,0,1-.067-.312c-.037-.245-.081-.549-.138-.926-.113-.862-.269-2.053-.467-3.564-.4-3.1-.926-7.583-1.54-13.132-1.234-11.1-2.754-26.448-4.121-43.428s-2.313-32.385-2.867-43.536c-.278-5.576-.473-10.089-.577-13.209-.045-1.523-.081-2.724-.107-3.593-.006-.381-.009-.688-.013-.935a1.189,1.189,0,0,1,.017-.319,1.228,1.228,0,0,1,.046.317c.02.246.044.552.074.932.053.868.129,2.067.224,3.587.186,3.166.449,7.661.774,13.2.665,11.143,1.685,26.53,3.047,43.51s2.817,32.326,3.939,43.432c.563,5.515,1.02,10,1.343,13.151.149,1.517.266,2.712.352,3.578.03.38.056.686.075.932A1.217,1.217,0,0,1,391.531,461.181Z" transform="translate(-381.635 -338.226)" fill="#263238"/>
          </g>
        </g>
      </g>
      <g id="Group_596" data-name="Group 596" transform="translate(118.312 324.717)">
        <g id="Group_595" data-name="Group 595">
          <g id="Group_594" data-name="Group 594">
            <path id="Path_1185" data-name="Path 1185" d="M411.073,444.269a5.346,5.346,0,0,1-1.3.181c-.838.078-2.052.157-3.554.228-3,.147-7.161.216-11.746.145s-8.733-.211-11.736-.326l-3.554-.167a5.33,5.33,0,0,1-1.3-.144,5.32,5.32,0,0,1,1.307-.1c.84-.023,2.055-.032,3.558-.03,3,0,7.155.077,11.736.143s8.723.072,11.724.038l3.556-.031A5.31,5.31,0,0,1,411.073,444.269Z" transform="translate(-377.884 -444.058)" fill="#263238"/>
          </g>
        </g>
      </g>
      <g id="Group_599" data-name="Group 599" transform="translate(56.754 85.139)">
        <g id="Group_598" data-name="Group 598">
          <g id="Group_597" data-name="Group 597">
            <path id="Path_1186" data-name="Path 1186" d="M426.2,250.723,406.291,237.63s-9.734,28.042-12.718,28.314c-16.529,1.508-34.213-3.973-40.414-6.138-.63-.707-1.349-1.556-2.149-2.6a9.864,9.864,0,0,1-1.555-2.97,15.1,15.1,0,0,1-.885-4.083,1.3,1.3,0,0,0-2.228-1.021c-.716.925-.9,4.467.733,8.277s-4.142.779-6.267-.288-8.851-4.059-9.7-3.666c-1.24.578-.85,2.011,1.3,3.027,2.171,1.029,8.367,4.517,7.749,5.611-.608,1.078-11.348-4.5-11.348-4.5s-2.1-1.563-2.857-.324c-1.364,2.239,10.491,7.329,11.63,7.785.792.317.164,1.531-.668,1.144-.858-.4-10.583-5.813-11.994-3.547-1.08,1.739,9.712,4.277,11.106,6.52s-7.989-2.756-8.954-1.053c-.359.635-.54,1.157,5.263,3.251a123.459,123.459,0,0,0,12.934,3.3l-.021.059s59.26,26.529,70.468.934C427.651,248.415,426.2,250.723,426.2,250.723Z" transform="translate(-324.844 -237.63)" fill="#e5baab"/>
          </g>
        </g>
      </g>
      <g id="Group_604" data-name="Group 604" transform="translate(126.448 59.897)">
        <g id="Group_603" data-name="Group 603">
          <g id="Group_602" data-name="Group 602">
            <g id="Group_601" data-name="Group 601">
              <path id="Path_1187" data-name="Path 1187" d="M403.469,215.881s18.111,2.137,16.2,23.671a105.192,105.192,0,0,1-11.031,38.2l-23.74-12.466A147.1,147.1,0,0,0,396.867,231.7l6.6-15.815Z" transform="translate(-384.894 -215.881)" fill="#e8505b"/>
            </g>
          </g>
        </g>
      </g>
      <g id="Group_609" data-name="Group 609" transform="translate(126.448 59.897)">
        <g id="Group_608" data-name="Group 608">
          <g id="Group_607" data-name="Group 607">
            <g id="Group_606" data-name="Group 606">
              <path id="Path_1188" data-name="Path 1188" d="M403.469,215.881s18.111,2.137,16.2,23.671a105.192,105.192,0,0,1-11.031,38.2l-23.74-12.466A147.1,147.1,0,0,0,396.867,231.7l6.6-15.815Z" transform="translate(-384.894 -215.881)" fill="#0d0405"/>
            </g>
          </g>
        </g>
      </g>
    </g>
    <g id="Group_699" data-name="Group 699" transform="translate(33.75 258.3)">
      <g id="Group_677" data-name="Group 677" transform="translate(0)">
        <g id="Group_676" data-name="Group 676">
          <g id="Group_675" data-name="Group 675">
            <path id="Path_1229" data-name="Path 1229" d="M67.493,391.737C53.641,382.06,50.5,364.1,51.047,347.949c.09-2.7-.2-5.536,1.076-7.9s4.274-3.98,6.688-2.845c2,.943,2.873,3.27,3.993,5.2a15.764,15.764,0,0,0,6.321,6.038c1.716.891,3.84,1.436,5.535.5,2.325-1.283,2.6-4.5,2.582-7.176q-.047-7.5-.094-14.989a24.984,24.984,0,0,1,.809-7.961c.834-2.544,2.677-4.908,5.226-5.623s5.7.756,6.242,3.38a24.71,24.71,0,0,1,.076,3.337,2.821,2.821,0,0,0,1.65,2.655c1.07.314,2.142-.446,2.944-1.231,2.767-2.706,4.645-6.193,6.4-9.661s3.458-7.017,5.968-9.969,5.983-5.292,9.823-5.509,7.93,2.152,8.9,5.921-1.232,7.613-3.632,10.672A59.816,59.816,0,0,1,109.1,324.66a4.918,4.918,0,0,0-2.083,2.241c-.583,1.787,1.111,3.562,2.876,4.15,2,.665,4.166.458,6.256.7s4.355,1.168,5.146,3.144c1.1,2.74-1.193,5.612-3.449,7.493a51.269,51.269,0,0,1-15.171,8.757c-1.971.721-4.047,1.354-5.637,2.74s-2.55,3.795-1.59,5.683,3.428,2.495,5.493,2.111,3.914-1.5,5.882-2.246c3.684-1.39,8.441-1.137,10.8,2.047a8.485,8.485,0,0,1,.9,7.5,19.555,19.555,0,0,1-4.064,6.625A51.538,51.538,0,0,1,92.45,391.078c-8.545,2.963-16.464,3.765-24.957.659" transform="translate(-50.988 -296.177)" fill="#ff5a61"/>
          </g>
        </g>
      </g>
      <g id="Group_681" data-name="Group 681" transform="translate(15.899 2.257)">
        <g id="Group_680" data-name="Group 680">
          <g id="Group_679" data-name="Group 679">
            <g id="Group_678" data-name="Group 678">
              <path id="Path_1230" data-name="Path 1230" d="M110.506,298.975a1.955,1.955,0,0,1-.26.255l-.8.709c-.7.621-1.737,1.536-3.038,2.752a100.528,100.528,0,0,0-10.239,11.052c-2,2.484-4.068,5.3-6.238,8.357s-4.459,6.356-6.74,9.9a121.248,121.248,0,0,0-6.613,11.457c-1.034,2.05-1.954,4.194-2.9,6.38l-2.844,6.648a246.128,246.128,0,0,0-9.554,25.8,119.746,119.746,0,0,0-4.467,22,87.7,87.7,0,0,0-.252,15.141c.14,1.784.277,3.17.4,4.1.052.449.093.8.123,1.066a2.075,2.075,0,0,1,.027.366,1.971,1.971,0,0,1-.077-.358c-.042-.263-.1-.614-.172-1.06-.158-.931-.326-2.315-.5-4.1a83.707,83.707,0,0,1,.1-15.19,117.678,117.678,0,0,1,4.38-22.094,240.265,240.265,0,0,1,9.535-25.861l2.848-6.651c.94-2.18,1.872-4.344,2.914-6.4a120.041,120.041,0,0,1,6.665-11.488c2.3-3.551,4.606-6.838,6.788-9.894s4.282-5.861,6.3-8.34a95.2,95.2,0,0,1,10.381-10.972c1.323-1.2,2.379-2.088,3.1-2.685l.827-.672A1.972,1.972,0,0,1,110.506,298.975Z" transform="translate(-56.08 -298.974)" fill="#263238"/>
            </g>
          </g>
        </g>
      </g>
      <g id="Group_685" data-name="Group 685" transform="translate(32.186 17.011)">
        <g id="Group_684" data-name="Group 684" transform="translate(0)">
          <g id="Group_683" data-name="Group 683">
            <g id="Group_682" data-name="Group 682">
              <path id="Path_1231" data-name="Path 1231" d="M102.388,346.752a5.335,5.335,0,0,1-.262-1.143c-.141-.741-.309-1.819-.5-3.154-.379-2.669-.777-6.373-1.2-10.458s-.872-7.775-1.291-10.431c-.206-1.328-.382-2.4-.515-3.143a5.385,5.385,0,0,1-.149-1.164,5.407,5.407,0,0,1,.337,1.123c.19.73.42,1.8.67,3.123.508,2.651,1.014,6.347,1.438,10.437.407,4.033.775,7.681,1.055,10.468.135,1.258.25,2.318.342,3.17A5.413,5.413,0,0,1,102.388,346.752Z" transform="translate(-98.464 -317.259)" fill="#263238"/>
            </g>
          </g>
        </g>
      </g>
      <g id="Group_689" data-name="Group 689" transform="translate(36.11 40.028)">
        <g id="Group_688" data-name="Group 688">
          <g id="Group_687" data-name="Group 687">
            <g id="Group_686" data-name="Group 686">
              <path id="Path_1232" data-name="Path 1232" d="M90.235,345.818a7.372,7.372,0,0,1-1.374.165c-.884.079-2.165.186-3.742.369-3.157.341-7.5.964-12.264,1.862s-9.038,1.91-12.109,2.726c-1.54.4-2.776.751-3.633.991a7.379,7.379,0,0,1-1.344.33,7.3,7.3,0,0,1,1.288-.516c.841-.3,2.066-.7,3.6-1.147,3.056-.9,7.333-1.966,12.11-2.875A121.612,121.612,0,0,1,85.085,346c1.587-.138,2.875-.193,3.766-.211A7.314,7.314,0,0,1,90.235,345.818Z" transform="translate(-55.77 -345.782)" fill="#263238"/>
            </g>
          </g>
        </g>
      </g>
      <g id="Group_693" data-name="Group 693" transform="translate(3.741 40.785)">
        <g id="Group_692" data-name="Group 692">
          <g id="Group_691" data-name="Group 691">
            <g id="Group_690" data-name="Group 690">
              <path id="Path_1233" data-name="Path 1233" d="M134.44,390.74a1.829,1.829,0,0,1-.236-.42l-.589-1.247c-.507-1.085-1.2-2.675-2.03-4.649-1.662-3.948-3.788-9.474-6.05-15.6s-4.336-11.67-5.913-15.648c-.774-1.933-1.41-3.523-1.883-4.706-.2-.512-.369-.936-.505-1.284a1.82,1.82,0,0,1-.145-.461,1.783,1.783,0,0,1,.236.421c.16.336.354.747.59,1.246.507,1.085,1.2,2.674,2.029,4.649,1.663,3.948,3.788,9.475,6.052,15.607s4.334,11.668,5.912,15.646c.774,1.933,1.41,3.524,1.883,4.705l.505,1.284A1.757,1.757,0,0,1,134.44,390.74Z" transform="translate(-117.084 -346.721)" fill="#263238"/>
            </g>
          </g>
        </g>
      </g>
      <g id="Group_697" data-name="Group 697" transform="translate(21.096 70.038)">
        <g id="Group_696" data-name="Group 696">
          <g id="Group_695" data-name="Group 695">
            <g id="Group_694" data-name="Group 694">
              <path id="Path_1234" data-name="Path 1234" d="M106.129,382.979a1.842,1.842,0,0,1-.454.187l-1.33.445-4.9,1.59c-4.141,1.343-9.839,3.264-16.133,5.394s-12.017,4-16.186,5.259c-2.085.63-3.777,1.122-4.953,1.438l-1.356.357a1.854,1.854,0,0,1-.483.091,1.87,1.87,0,0,1,.454-.189l1.331-.445,4.9-1.589c4.141-1.343,9.84-3.264,16.134-5.4s12.014-4,16.184-5.259c2.084-.629,3.776-1.122,4.953-1.438l1.357-.356A1.758,1.758,0,0,1,106.129,382.979Z" transform="translate(-60.33 -382.974)" fill="#263238"/>
            </g>
          </g>
        </g>
      </g>
    </g>
  </g>
</svg>
