<svg xmlns="http://www.w3.org/2000/svg" width="64.467" height="64.5" viewBox="0 0 64.467 64.5">
  <g id="value" transform="translate(-25.108 -24.989)">
    <path id="Path_45361" data-name="Path 45361" d="M82.344,284.922l-.331.179a4.563,4.563,0,0,0-5.421-1.357l-.019.01-.782.421a5.937,5.937,0,0,0-6.8-.614l-4.21,2.289h-5.6a8.092,8.092,0,0,1-3.5-.8l-.771-.373a13.219,13.219,0,0,0-13.758,1.344c-.018.014-.036.028-.053.044l-1.86,1.656a6.453,6.453,0,0,1-2.435,1.357l-1.057-3.469a.838.838,0,0,0-.8-.593h-9a.838.838,0,0,0-.831.939l3,24.593a.838.838,0,0,0,.831.736h13.5a.838.838,0,0,0,.8-1.082l-1.773-5.818,5.522-3.49a3.323,3.323,0,0,1,2.424-.314l.052.011L60.7,302.657a14.535,14.535,0,0,0,8.982-1.268.827.827,0,0,0,.1-.06l19.428-13.339a.838.838,0,0,0,.243-1.123A5.333,5.333,0,0,0,82.344,284.922Zm-4.986.311a2.86,2.86,0,0,1,3.128.691L73.119,289.9l-.433.228a6.387,6.387,0,0,0-1.009-1.833Zm-7.554-.207.02-.011a4.26,4.26,0,0,1,4.333.041l-3.746,2.017A6.365,6.365,0,0,0,68.018,286Zm-40.118,24.58-2.794-22.917h7.431l6.987,22.917Zm39.2-9.693a12.849,12.849,0,0,1-7.885,1.1l-11.2-2.063a5,5,0,0,0-3.642.493l-.039.023-5.153,3.258L37.29,290.678a8.134,8.134,0,0,0,3.06-1.711l1.834-1.633a11.55,11.55,0,0,1,11.994-1.154l.77.373a9.778,9.778,0,0,0,4.232.97h7.472a4.726,4.726,0,0,1,4.635,3.838l-5.416-.245a32.434,32.434,0,0,0-5.894.272.838.838,0,1,0,.23,1.659,30.707,30.707,0,0,1,5.588-.258l6.374.288h.038a.838.838,0,0,0,.838-.838c0-.136-.006-.27-.014-.4l.874-.461,9.235-4.98a3.66,3.66,0,0,1,4.4.706Z" transform="translate(0 -221.792)" fill="#fff"/>
    <path id="Path_45362" data-name="Path 45362" d="M76.974,433.935a2.637,2.637,0,1,0,2.637-2.637A2.637,2.637,0,0,0,76.974,433.935Zm2.637-.962a.962.962,0,1,1-.962.962.962.962,0,0,1,.962-.962Z" transform="translate(-44.625 -349.587)" fill="#fff"/>
    <path id="Path_45363" data-name="Path 45363" d="M223.251,34.107v-2.76a6.358,6.358,0,1,0-12.716,0v2.76a6.358,6.358,0,1,0,12.716,0Zm-11.041,0v-2.76a4.683,4.683,0,1,1,9.366,0v2.76a4.683,4.683,0,1,1-9.366,0Z" transform="translate(-159.54)" fill="#fff"/>
    <path id="Path_45364" data-name="Path 45364" d="M85.729,155.535h20.5a.838.838,0,0,0,.838-.838v-1.923h14.032a.838.838,0,0,0,.838-.838V146.5a6.278,6.278,0,0,0-5.878-6.262.978.978,0,0,0-.863.477,3.844,3.844,0,0,1-6.065-.148.838.838,0,0,0-.695-.34,6.21,6.21,0,0,0-3.081.9,7.041,7.041,0,0,0-4.914-2.437,1.019,1.019,0,0,0-.864.5,4.51,4.51,0,0,1-7.117-.174.835.835,0,0,0-.695-.34A7.01,7.01,0,0,0,86.9,140.8c-.106.108-.206.22-.3.334a6.228,6.228,0,0,0-2.856-.9.979.979,0,0,0-.863.477,3.844,3.844,0,0,1-6.065-.148.84.84,0,0,0-.695-.34A6.276,6.276,0,0,0,70,146.5v5.437a.838.838,0,0,0,.838.838H84.891V154.7A.838.838,0,0,0,85.729,155.535Zm22.346-13.605a5.52,5.52,0,0,0,8.265.022,4.605,4.605,0,0,1,3.918,4.549v4.6H107.063v-5.373a7.008,7.008,0,0,0-.774-3.207A4.528,4.528,0,0,1,108.075,141.929ZM91.4,140.379a6.187,6.187,0,0,0,9.344.022,5.38,5.38,0,0,1,4.643,5.325v8.134H86.566v-8.134a5.411,5.411,0,0,1,4.835-5.347ZM71.675,151.1v-4.6a4.632,4.632,0,0,1,4.084-4.57,5.52,5.52,0,0,0,8.263.021,4.57,4.57,0,0,1,1.635.577,7.018,7.018,0,0,0-.766,3.2V151.1Z" transform="translate(-38.625 -97.818)" fill="#fff"/>
    <path id="Path_45365" data-name="Path 45365" d="M342.469,58.346V55.93a5.67,5.67,0,1,0-11.339,0v2.416a5.67,5.67,0,1,0,11.339,0Zm-9.664,0V55.93a3.994,3.994,0,1,1,7.989,0v2.416a3.994,3.994,0,0,1-7.989,0Z" transform="translate(-263.3 -21.743)" fill="#fff"/>
    <path id="Path_45366" data-name="Path 45366" d="M110.985,58.346V55.93a5.67,5.67,0,1,0-11.339,0v2.416a5.67,5.67,0,0,0,11.339,0Zm-9.664,0V55.93a3.994,3.994,0,0,1,7.989,0v2.416a3.994,3.994,0,0,1-7.989,0Z" transform="translate(-64.132 -21.743)" fill="#fff"/>
  </g>
</svg>
