<svg id="authentic" xmlns="http://www.w3.org/2000/svg" width="61" height="61" viewBox="0 0 61 61">
  <path id="Path_45277" data-name="Path 45277" d="M32.4,62.309a29.9,29.9,0,1,1,29.9-29.9A29.938,29.938,0,0,1,32.4,62.309Z" transform="translate(-1.904 -1.904)" fill="#fff"/>
  <path id="Path_45307" data-name="Path 45307" d="M26.817,0A26.817,26.817,0,1,1,0,26.817,26.817,26.817,0,0,1,26.817,0Z" transform="translate(3.683 3.683)" fill="#fff"/>
  <path id="Path_45278" data-name="Path 45278" d="M98.692,54.046a18.9,18.9,0,0,0-26.684,0Z" transform="translate(-54.85 -36.968)" fill="#edf4fc"/>
  <path id="Path_45279" data-name="Path 45279" d="M72.008,184.331a18.9,18.9,0,0,0,26.684,0Z" transform="translate(-54.85 -140.408)" fill="#edf4fc"/>
  <path id="Path_45280" data-name="Path 45280" d="M15.455,85.092a26.652,26.652,0,0,0,3.608,13.423H65.482a26.77,26.77,0,0,0,0-26.845H19.063a26.652,26.652,0,0,0-3.608,13.423Z" transform="translate(-11.772 -54.592)" fill="#fff"/>
  <g id="Group_81505" data-name="Group 81505" transform="translate(14.672 20.625)">
    <path id="Path_45281" data-name="Path 45281" d="M65.145,87.166H62.216a.643.643,0,0,0-.643.643v1.233a.643.643,0,0,0,.643.643h.894v8.347a.643.643,0,0,0,.643.643h1.392a.643.643,0,0,0,.643-.643V87.809A.643.643,0,0,0,65.145,87.166Z" transform="translate(-61.573 -87.021)" fill="#edf4fc"/>
    <path id="Path_45282" data-name="Path 45282" d="M85.983,86.557c-3.292,0-4.268,2.56-4.268,5.834,0,3.292.975,5.863,4.268,5.863a3.624,3.624,0,0,0,3.373-1.692,9.879,9.879,0,0,0,0-8.314A3.624,3.624,0,0,0,85.983,86.557Zm-1.51,3.882c.227-1.053.771-1.334,1.51-1.334A1.385,1.385,0,0,1,87,89.42a1.959,1.959,0,0,1,.512,1.019,11.566,11.566,0,0,1,0,3.928c-.23,1.077-.779,1.355-1.525,1.355s-1.284-.3-1.51-1.355A11.573,11.573,0,0,1,84.473,90.439Z" transform="translate(-76.916 -86.557)" fill="#edf4fc"/>
    <path id="Path_45283" data-name="Path 45283" d="M123.348,86.557c-3.291,0-4.268,2.558-4.268,5.834,0,3.291.975,5.863,4.268,5.863s4.283-2.562,4.283-5.863S126.622,86.557,123.348,86.557Zm-1.51,3.882c.223-1.036.754-1.334,1.51-1.334s1.3.293,1.525,1.334a11.554,11.554,0,0,1,0,3.928c-.233,1.088-.791,1.355-1.525,1.355s-1.283-.291-1.51-1.355A11.56,11.56,0,0,1,121.838,90.439Z" transform="translate(-105.377 -86.557)" fill="#edf4fc"/>
    <path id="Path_45284" data-name="Path 45284" d="M166.343,87.426a.643.643,0,0,0-.556-.321h-1.305a.644.644,0,0,0-.558.323L158.05,97.666a.643.643,0,0,0,.558.963h1.305a.644.644,0,0,0,.558-.323l5.873-10.238A.643.643,0,0,0,166.343,87.426Z" transform="translate(-134.997 -86.974)" fill="#edf4fc"/>
    <circle id="Ellipse_1257" data-name="Ellipse 1257" cx="2.315" cy="2.315" r="2.315" transform="translate(22.653 0.131)" fill="#edf4fc"/>
    <circle id="Ellipse_1258" data-name="Ellipse 1258" cx="2.315" cy="2.315" r="2.315" transform="translate(27.026 7.002)" fill="#edf4fc"/>
  </g>
  <path id="Path_45285" data-name="Path 45285" d="M40.589,146.39a.193.193,0,0,0-.181-.125h-.852a.193.193,0,0,0-.18.125l-2.158,5.722a.193.193,0,0,0,.181.261h.81a.193.193,0,0,0,.181-.127l.442-1.221h2.293l.442,1.221a.193.193,0,0,0,.181.127h.81a.193.193,0,0,0,.181-.261Zm.181,3.662H39.187l.792-2.185Z" transform="translate(-28.34 -111.413)"/>
  <path id="Path_45286" data-name="Path 45286" d="M66.412,145.813H65.66a.193.193,0,0,0-.193.193v3.5a1.674,1.674,0,0,1-.323,1.136,1.126,1.126,0,0,1-.89.35,1.169,1.169,0,0,1-.909-.348,1.644,1.644,0,0,1-.329-1.138v-3.5a.193.193,0,0,0-.193-.193h-.752a.193.193,0,0,0-.193.193v3.5a2.644,2.644,0,0,0,.647,1.926,2.571,2.571,0,0,0,3.433,0,2.645,2.645,0,0,0,.647-1.926v-3.5A.192.192,0,0,0,66.412,145.813Z" transform="translate(-47.134 -111.069)"/>
  <path id="Path_45287" data-name="Path 45287" d="M87.25,145.813H83.206a.193.193,0,0,0-.193.193v.612a.193.193,0,0,0,.193.193h1.453v5.025a.193.193,0,0,0,.193.193H85.6a.193.193,0,0,0,.193-.193v-5.025H87.25a.193.193,0,0,0,.193-.193v-.612A.193.193,0,0,0,87.25,145.813Z" transform="translate(-63.233 -111.069)"/>
  <path id="Path_45288" data-name="Path 45288" d="M107.772,145.813h-.761a.193.193,0,0,0-.193.193v2.329h-2.574v-2.329a.193.193,0,0,0-.193-.193H103.3a.193.193,0,0,0-.193.193v5.83a.193.193,0,0,0,.193.193h.752a.193.193,0,0,0,.193-.193v-2.5h2.574v2.5a.193.193,0,0,0,.193.193h.761a.193.193,0,0,0,.193-.193v-5.83A.193.193,0,0,0,107.772,145.813Z" transform="translate(-78.537 -111.069)"/>
  <path id="Path_45289" data-name="Path 45289" d="M130.357,145.813H127.14a.193.193,0,0,0-.193.193v5.83a.193.193,0,0,0,.193.193h3.217a.193.193,0,0,0,.193-.193v-.612a.193.193,0,0,0-.193-.193h-2.272v-1.648h2.023a.193.193,0,0,0,.193-.193v-.579a.193.193,0,0,0-.193-.193h-2.023v-1.607h2.272a.193.193,0,0,0,.193-.193v-.612A.193.193,0,0,0,130.357,145.813Z" transform="translate(-96.698 -111.069)"/>
  <path id="Path_45290" data-name="Path 45290" d="M149.23,145.813h-.753a.193.193,0,0,0-.193.193v3.968l-2.672-4.074a.193.193,0,0,0-.161-.087H144.7a.193.193,0,0,0-.193.193v5.83a.193.193,0,0,0,.193.193h.753a.193.193,0,0,0,.193-.193v-3.961l2.672,4.067a.193.193,0,0,0,.161.087h.753a.193.193,0,0,0,.193-.193v-5.83A.193.193,0,0,0,149.23,145.813Z" transform="translate(-110.072 -111.069)"/>
  <path id="Path_45291" data-name="Path 45291" d="M170.849,145.813h-4.043a.193.193,0,0,0-.193.193v.612a.193.193,0,0,0,.193.193h1.453v5.025a.193.193,0,0,0,.193.193h.753a.193.193,0,0,0,.193-.193v-5.025h1.453a.193.193,0,0,0,.193-.193v-.612A.194.194,0,0,0,170.849,145.813Z" transform="translate(-126.912 -111.069)"/>
  <path id="Path_45292" data-name="Path 45292" d="M187.649,145.813H186.9a.193.193,0,0,0-.193.193v5.83a.193.193,0,0,0,.193.193h.752a.193.193,0,0,0,.193-.193v-5.83A.193.193,0,0,0,187.649,145.813Z" transform="translate(-142.216 -111.069)"/>
  <path id="Path_45293" data-name="Path 45293" d="M199.789,149.547H199a.193.193,0,0,0-.18.123,1.74,1.74,0,0,1-.649.833,1.906,1.906,0,0,1-1.106.309,1.684,1.684,0,0,1-1.56-.961,2.436,2.436,0,0,1-.24-1.112,2.478,2.478,0,0,1,.24-1.124,1.679,1.679,0,0,1,1.56-.965,1.908,1.908,0,0,1,1.106.309,1.741,1.741,0,0,1,.649.833.193.193,0,0,0,.18.123h.794a.193.193,0,0,0,.185-.247,2.879,2.879,0,0,0-1.028-1.535,3.038,3.038,0,0,0-1.878-.564,2.963,2.963,0,0,0-1.546.4,2.787,2.787,0,0,0-1.052,1.131,3.52,3.52,0,0,0-.373,1.635,3.471,3.471,0,0,0,.373,1.623,2.8,2.8,0,0,0,1.052,1.127,2.964,2.964,0,0,0,1.546.4,3.04,3.04,0,0,0,1.878-.564,2.878,2.878,0,0,0,1.028-1.535.192.192,0,0,0-.185-.246Z" transform="translate(-147.847 -110.883)"/>
  <path id="Path_45294" data-name="Path 45294" d="M63.24,97.367H61.848a1.24,1.24,0,0,1-1.239-1.239V88.376h-.3a1.24,1.24,0,0,1-1.239-1.239V85.9a1.24,1.24,0,0,1,1.239-1.239H63.24A1.24,1.24,0,0,1,64.479,85.9V96.128A1.24,1.24,0,0,1,63.24,97.367ZM60.311,85.857a.048.048,0,0,0-.047.047v1.232a.047.047,0,0,0,.047.047H61.2a.6.6,0,0,1,.6.6v8.347a.048.048,0,0,0,.047.047H63.24a.048.048,0,0,0,.047-.047V85.9a.047.047,0,0,0-.047-.047Z" transform="translate(-44.996 -64.492)"/>
  <path id="Path_45295" data-name="Path 45295" d="M84.079,96.946c-3.228,0-4.864-2.173-4.864-6.459,0-4.267,1.637-6.43,4.864-6.43a4.233,4.233,0,0,1,3.885,1.983,10.414,10.414,0,0,1,0,8.923A4.234,4.234,0,0,1,84.079,96.946Zm0-11.7c-1.577,0-3.673.543-3.673,5.239,0,4.722,2.1,5.268,3.673,5.268a3.032,3.032,0,0,0,2.861-1.4,9.307,9.307,0,0,0,0-7.705A3.032,3.032,0,0,0,84.079,85.248Zm0,9.165a2.007,2.007,0,0,1-2.092-1.826,12.038,12.038,0,0,1,0-4.178,1.979,1.979,0,0,1,2.092-1.8,1.939,1.939,0,0,1,1.431.487,2.533,2.533,0,0,1,.676,1.317,12.086,12.086,0,0,1,0,4.178A2,2,0,0,1,84.079,94.413Zm0-6.617c-.434,0-.755.062-.928.864h0a10.97,10.97,0,0,0,0,3.678c.175.821.495.884.927.884s.767-.063.942-.884a11.007,11.007,0,0,0,0-3.679,1.392,1.392,0,0,0-.347-.72A.891.891,0,0,0,84.079,87.8Zm-1.51.738h0Z" transform="translate(-60.34 -64.028)"/>
  <path id="Path_45296" data-name="Path 45296" d="M121.444,96.946c-3.228,0-4.864-2.173-4.864-6.459,0-4.267,1.637-6.43,4.864-6.43,4.032,0,4.879,3.5,4.879,6.43S125.476,96.946,121.444,96.946Zm0-11.7c-1.576,0-3.673.543-3.673,5.239,0,4.722,2.1,5.268,3.673,5.268s3.687-.546,3.687-5.268C125.131,85.791,123.027,85.248,121.444,85.248Zm0,9.165a2.007,2.007,0,0,1-2.092-1.826,12.042,12.042,0,0,1,0-4.178,2.124,2.124,0,0,1,4.2,0,12.073,12.073,0,0,1,0,4.178A2,2,0,0,1,121.444,94.413Zm0-6.617c-.434,0-.755.062-.928.864h0a10.976,10.976,0,0,0,0,3.678c.175.821.495.884.927.884s.767-.063.942-.884a11.011,11.011,0,0,0,0-3.678C122.227,87.921,121.967,87.8,121.444,87.8Zm-1.51.738h0Z" transform="translate(-88.801 -64.028)"/>
  <path id="Path_45297" data-name="Path 45297" d="M158.013,97.32h-1.306a1.239,1.239,0,0,1-1.075-1.855l5.873-10.238a1.242,1.242,0,0,1,1.075-.622h1.305a1.239,1.239,0,0,1,1.075,1.855L159.088,96.7A1.244,1.244,0,0,1,158.013,97.32ZM162.58,85.8a.048.048,0,0,0-.041.024l-5.873,10.237a.047.047,0,0,0,.041.071h1.306a.048.048,0,0,0,.042-.024l5.872-10.237a.047.047,0,0,0,0-.047h0a.047.047,0,0,0-.041-.024Z" transform="translate(-118.424 -64.445)"/>
  <path id="Path_45298" data-name="Path 45298" d="M157.053,90.427a2.911,2.911,0,1,1,2.911-2.911A2.914,2.914,0,0,1,157.053,90.427Zm0-4.63a1.719,1.719,0,1,0,1.719,1.719A1.721,1.721,0,0,0,157.053,85.8Z" transform="translate(-117.413 -64.445)"/>
  <path id="Path_45299" data-name="Path 45299" d="M164.455,95.515a.624.624,0,0,1-.117-.012.578.578,0,0,1-.215-.088.681.681,0,0,1-.091-.074.6.6,0,0,1,0-.843.681.681,0,0,1,.091-.074.846.846,0,0,1,.1-.055.611.611,0,0,1,.112-.033.64.64,0,0,1,.233,0,.579.579,0,0,1,.11.033.727.727,0,0,1,.1.055.658.658,0,0,1,.088.074.593.593,0,0,1,0,.843.658.658,0,0,1-.088.074.556.556,0,0,1-.1.055.576.576,0,0,1-.11.033A.645.645,0,0,1,164.455,95.515Z" transform="translate(-124.814 -71.849)"/>
  <path id="Path_45300" data-name="Path 45300" d="M175.406,119.266a2.911,2.911,0,1,1,2.911-2.911A2.914,2.914,0,0,1,175.406,119.266Zm0-4.63a1.719,1.719,0,1,0,1.719,1.719A1.721,1.721,0,0,0,175.406,114.635Z" transform="translate(-131.393 -86.412)"/>
  <path id="Path_45301" data-name="Path 45301" d="M182.806,124.354a.646.646,0,0,1-.117-.012.6.6,0,0,1-.112-.033.619.619,0,0,1-.1-.055.88.88,0,0,1-.091-.074.607.607,0,0,1-.174-.422.646.646,0,0,1,.012-.117.607.607,0,0,1,.033-.112.645.645,0,0,1,.055-.1.578.578,0,0,1,.164-.164.609.609,0,0,1,.1-.055.6.6,0,0,1,.651.129.886.886,0,0,1,.074.091.588.588,0,0,1,.055.1.607.607,0,0,1,.034.112.669.669,0,0,1,.012.117.594.594,0,0,1-.6.6Z" transform="translate(-138.793 -93.816)"/>
  <path id="Path_45302" data-name="Path 45302" d="M30.5,61A30.5,30.5,0,1,1,61,30.5,30.534,30.534,0,0,1,30.5,61Zm0-59.809A29.309,29.309,0,1,0,59.809,30.5,29.342,29.342,0,0,0,30.5,1.191Z"/>
  <path id="Path_45303" data-name="Path 45303" d="M40.368,67.781A27.413,27.413,0,1,1,67.781,40.368,27.444,27.444,0,0,1,40.368,67.781Zm0-53.635A26.222,26.222,0,1,0,66.59,40.368,26.251,26.251,0,0,0,40.368,14.146Z" transform="translate(-9.868 -9.868)"/>
  <path id="Path_45304" data-name="Path 45304" d="M63.577,97.206H17.159a.6.6,0,0,1-.515-.3,27.367,27.367,0,0,1,0-27.443.6.6,0,0,1,.515-.3H63.577a.6.6,0,0,1,.515.3,27.367,27.367,0,0,1,0,27.443A.6.6,0,0,1,63.577,97.206ZM17.5,96.014H63.232a26.177,26.177,0,0,0,0-25.654H17.5a26.178,26.178,0,0,0,0,25.654Z" transform="translate(-9.868 -52.687)"/>
  <path id="Path_45305" data-name="Path 45305" d="M96.788,52.737H70.1a.6.6,0,0,1-.42-1.018,19.5,19.5,0,0,1,27.524,0,.6.6,0,0,1-.42,1.018ZM71.634,51.546H95.258a18.3,18.3,0,0,0-23.624,0Z" transform="translate(-52.946 -35.064)"/>
  <path id="Path_45306" data-name="Path 45306" d="M83.446,188.535a19.4,19.4,0,0,1-13.762-5.686.6.6,0,0,1,.42-1.018H96.788a.6.6,0,0,1,.42,1.018,19.405,19.405,0,0,1-13.762,5.686Zm-11.812-5.513a18.3,18.3,0,0,0,23.624,0Z" transform="translate(-52.946 -138.504)"/>
</svg>
