<svg xmlns="http://www.w3.org/2000/svg" width="38.174" height="60.286" viewBox="0 0 38.174 60.286">
  <g id="chef_1_" data-name="chef (1)" transform="translate(-93.898)">
    <g id="Group_81637" data-name="Group 81637" transform="translate(93.898 36.176)">
      <g id="Group_81636" data-name="Group 81636" transform="translate(0)">
        <path id="Path_45367" data-name="Path 45367" d="M126.107,308.476l-7.946-1.227a1.006,1.006,0,0,0-.671.133,8.73,8.73,0,0,1-9.01,0,1,1,0,0,0-.671-.133l-7.946,1.227a6.993,6.993,0,0,0-5.965,6.949v15.922h2.009V315.425a4.994,4.994,0,0,1,4.261-4.963l7.6-1.172a10.726,10.726,0,0,0,10.438,0l7.6,1.172a4.994,4.994,0,0,1,4.26,4.963v15.922h2.01V315.425A6.993,6.993,0,0,0,126.107,308.476Z" transform="translate(-93.898 -307.237)"/>
      </g>
    </g>
    <g id="Group_81639" data-name="Group 81639" transform="translate(99.925)">
      <g id="Group_81638" data-name="Group 81638" transform="translate(0)">
        <path id="Path_45368" data-name="Path 45368" d="M166.182.013a5.019,5.019,0,0,0-4.018,2.012,5.018,5.018,0,0,0-8.031-.006A5.016,5.016,0,0,0,150.127,0h-.017A5.023,5.023,0,0,0,148.1,9.626V19.1a1,1,0,0,0,1,1h18.082a1,1,0,0,0,1-1.006V9.626A5.027,5.027,0,0,0,171.2,5.039v0A5.028,5.028,0,0,0,166.182.013Zm.753,7.928a1,1,0,0,0-.753.972v9.182H150.109V8.912a1,1,0,0,0-.753-.972,3.014,3.014,0,0,1,.753-5.932h.01a3.017,3.017,0,0,1,3,3.012v.016a1,1,0,0,0,1,1h0a1,1,0,0,0,1-1V5.026a3.014,3.014,0,0,1,6.027.01,1,1,0,0,0,2.009,0,3.014,3.014,0,1,1,3.767,2.905Z" transform="translate(-145.087)"/>
      </g>
    </g>
    <g id="Group_81641" data-name="Group 81641" transform="translate(102.939 18.095)">
      <g id="Group_81640" data-name="Group 81640" transform="translate(0)">
        <path id="Path_45369" data-name="Path 45369" d="M189.767,153.678H171.686a1,1,0,0,0-1,1v6.027a10.045,10.045,0,0,0,20.091,0v-6.027A1,1,0,0,0,189.767,153.678Zm-1,7.032a8.036,8.036,0,1,1-16.073,0v-5.023h16.073Z" transform="translate(-170.681 -153.678)"/>
      </g>
    </g>
    <g id="Group_81643" data-name="Group 81643" transform="translate(106.961 32.155)">
      <g id="Group_81642" data-name="Group 81642" transform="translate(0)">
        <rect id="Rectangle_19031" data-name="Rectangle 19031" width="2.009" height="5.023"/>
      </g>
    </g>
    <g id="Group_81645" data-name="Group 81645" transform="translate(117.006 32.155)">
      <g id="Group_81644" data-name="Group 81644" transform="translate(0)">
        <rect id="Rectangle_19032" data-name="Rectangle 19032" width="2.009" height="5.023"/>
      </g>
    </g>
    <g id="Group_81647" data-name="Group 81647" transform="translate(100.93 37.944)">
      <g id="Group_81646" data-name="Group 81646" transform="translate(0)">
        <path id="Path_45370" data-name="Path 45370" d="M167.712,322.251l-.843,3.369-12.4,1.908a1,1,0,0,0-.852.992v16.073h2.009v-15.21l12.207-1.879a1,1,0,0,0,.821-.749l1-4.018Z" transform="translate(-153.618 -322.251)"/>
      </g>
    </g>
    <g id="Group_81649" data-name="Group 81649" transform="translate(106.961 52.246)">
      <g id="Group_81648" data-name="Group 81648" transform="translate(0)">
        <rect id="Rectangle_19033" data-name="Rectangle 19033" width="2.009" height="2.009"/>
      </g>
    </g>
    <g id="Group_81651" data-name="Group 81651" transform="translate(106.961 46.219)">
      <g id="Group_81650" data-name="Group 81650" transform="translate(0)">
        <rect id="Rectangle_19034" data-name="Rectangle 19034" width="2.009" height="2.009"/>
      </g>
    </g>
    <g id="Group_81653" data-name="Group 81653" transform="translate(106.961 58.273)">
      <g id="Group_81652" data-name="Group 81652" transform="translate(0)">
        <rect id="Rectangle_19035" data-name="Rectangle 19035" width="2.009" height="2.009"/>
      </g>
    </g>
    <g id="Group_81655" data-name="Group 81655" transform="translate(117.006 52.246)">
      <g id="Group_81654" data-name="Group 81654" transform="translate(0)">
        <rect id="Rectangle_19036" data-name="Rectangle 19036" width="2.009" height="2.009"/>
      </g>
    </g>
    <g id="Group_81657" data-name="Group 81657" transform="translate(117.006 46.219)">
      <g id="Group_81656" data-name="Group 81656" transform="translate(0)">
        <rect id="Rectangle_19037" data-name="Rectangle 19037" width="2.009" height="2.009"/>
      </g>
    </g>
    <g id="Group_81659" data-name="Group 81659" transform="translate(117.006 58.273)">
      <g id="Group_81658" data-name="Group 81658" transform="translate(0)">
        <rect id="Rectangle_19038" data-name="Rectangle 19038" width="2.009" height="2.009"/>
      </g>
    </g>
    <g id="Group_81661" data-name="Group 81661" transform="translate(123.034 45.214)">
      <g id="Group_81660" data-name="Group 81660" transform="translate(0)">
        <rect id="Rectangle_19039" data-name="Rectangle 19039" width="2.009" height="15.068"/>
      </g>
    </g>
    <g id="Group_81663" data-name="Group 81663" transform="translate(106.961 14.074)">
      <g id="Group_81662" data-name="Group 81662" transform="translate(0)">
        <rect id="Rectangle_19040" data-name="Rectangle 19040" width="15.068" height="2.009"/>
      </g>
    </g>
    <g id="Group_81665" data-name="Group 81665" transform="translate(114.997 11.06)">
      <g id="Group_81664" data-name="Group 81664" transform="translate(0)">
        <rect id="Rectangle_19041" data-name="Rectangle 19041" width="2.009" height="4.018"/>
      </g>
    </g>
    <g id="Group_81667" data-name="Group 81667" transform="translate(108.97 11.06)">
      <g id="Group_81666" data-name="Group 81666">
        <rect id="Rectangle_19042" data-name="Rectangle 19042" width="2.009" height="4.018"/>
      </g>
    </g>
    <g id="Group_81669" data-name="Group 81669" transform="translate(108.992 37.939)">
      <g id="Group_81668" data-name="Group 81668" transform="translate(0 0)">
        <rect id="Rectangle_19043" data-name="Rectangle 19043" width="2.009" height="4.142" transform="translate(0 0.487) rotate(-14.035)"/>
      </g>
    </g>
  </g>
</svg>
