<svg xmlns="http://www.w3.org/2000/svg" width="54.904" height="53.589" viewBox="0 0 54.904 53.589">
  <g id="chef" transform="translate(-1.977 -2)">
    <path id="Path_45256" data-name="Path 45256" d="M58.053,42.556a10.69,10.69,0,0,1-9.513,1.362.946.946,0,0,0-.866.12l-4.257,3.019,1.1,1.543,3.863-2.744a12.645,12.645,0,0,0,10.733-1.734,13.425,13.425,0,0,0,1.581-1.251l-1.283-1.391a11.4,11.4,0,0,1-1.354,1.075Z" transform="translate(-4.111 -4.395)" fill="#ff5a61"/>
    <path id="Path_45257" data-name="Path 45257" d="M44.827,27.6a8.708,8.708,0,0,0-3.788,8.2l-11.6,7.688-11.6-7.683a8.668,8.668,0,0,0-3.792-8.2A8.526,8.526,0,0,0,8.087,26.07a6.735,6.735,0,0,0-4.952,3.052,7.2,7.2,0,0,0-.882,5.892,9.027,9.027,0,0,0,3.614,5.139,8.051,8.051,0,0,0,8.782.561l9,6.61-8.567,5.681A3.71,3.71,0,0,0,13.5,55.382a3.811,3.811,0,0,0,.543,2.833,3.585,3.585,0,0,0,2.335,1.573,3.5,3.5,0,0,0,2.72-.627l10.348-7.589L39.79,59.167a3.5,3.5,0,0,0,3.659.361A3.779,3.779,0,0,0,43.8,53l-8.577-5.676,9.009-6.613a8.051,8.051,0,0,0,8.782-.559c3.76-2.624,4.987-7.576,2.734-11.039S48.6,24.977,44.827,27.6ZM18.034,57.622a1.768,1.768,0,0,1-2.481-.468,1.868,1.868,0,0,1-.266-1.389,1.819,1.819,0,0,1,.779-1.165l9.193-6.1,2.6,1.905Zm25.559-1.857a1.854,1.854,0,0,1-.763,1.9,1.718,1.718,0,0,1-1.987-.039L15.194,38.8a.89.89,0,0,0-1.068.008,6.169,6.169,0,0,1-7.236-.22,7.144,7.144,0,0,1-2.869-4.059,5.256,5.256,0,0,1,.63-4.353A4.913,4.913,0,0,1,8.32,27.942a6.745,6.745,0,0,1,4.713,1.23,6.647,6.647,0,0,1,2.9,6.856.961.961,0,0,0,.393,1.028L42.817,54.6a1.81,1.81,0,0,1,.777,1.166Zm8.4-17.182a6.17,6.17,0,0,1-7.237.219.89.89,0,0,0-1.068-.008l-10.12,7.43L31.14,44.616l11.411-7.568a.961.961,0,0,0,.393-1.026,6.681,6.681,0,0,1,2.907-6.856c2.927-2.041,6.691-1.59,8.382,1s.684,6.376-2.242,8.417Z" transform="translate(0 -4.295)" fill="#ff5a61"/>
    <path id="Path_45258" data-name="Path 45258" d="M12.553,3.743,11.506,2.167A12.3,12.3,0,0,0,6.7,16.516l1.783-.632A10.407,10.407,0,0,1,12.554,3.743Z" transform="translate(-0.217 -0.009)" fill="#ff5a61"/>
    <path id="Path_45259" data-name="Path 45259" d="M10.588,20.173A10.525,10.525,0,0,1,9.383,18.5l-1.638.946a12.407,12.407,0,0,0,1.424,1.977Z" transform="translate(-0.311 -1.763)" fill="#ff5a61"/>
    <path id="Path_45260" data-name="Path 45260" d="M39.8,34.355l2.572-13.466a8.392,8.392,0,0,0,7.418-8.874,8.306,8.306,0,0,0-8.165-8.123,7.8,7.8,0,0,0-5.031,1.831,7.917,7.917,0,0,0-13.429,0,7.8,7.8,0,0,0-5.03-1.831,8.308,8.308,0,0,0-8.123,8.124,8.394,8.394,0,0,0,7.376,8.869l2.572,13.47,1.771-.371-.506-2.657h17.31l-.506,2.649Zm-4.361-4.919.756-5.542L34.4,23.625l-.792,5.811H30.78V19.029H28.973V29.436H26.142l-.792-5.811-1.789.269.756,5.542H20.86l-1.843-9.65a.915.915,0,0,0-.885-.757,6.478,6.478,0,0,1-6.324-6.622,6.478,6.478,0,0,1,6.324-6.622,6.133,6.133,0,0,1,4.592,2.081.88.88,0,0,0,.794.285.908.908,0,0,0,.675-.522,6.192,6.192,0,0,1,11.367,0,.908.908,0,0,0,.675.522.88.88,0,0,0,.794-.285,6.133,6.133,0,0,1,4.592-2.081,6.478,6.478,0,0,1,6.324,6.622,6.478,6.478,0,0,1-6.324,6.622.915.915,0,0,0-.885.757l-1.843,9.65Z" transform="translate(-0.433)" fill="#ff5a61"/>
  </g>
</svg>
