<svg id="community" xmlns="http://www.w3.org/2000/svg" width="53" height="53" viewBox="0 0 53 53">
  <path id="Path_45377" data-name="Path 45377" d="M53,11.387a3.111,3.111,0,0,0-2.29-3A3.1,3.1,0,0,0,48.64,4.25,3.1,3.1,0,0,0,45.754,0H34.595a15.37,15.37,0,0,0-6.777,1.6l-.941.47H15.527a3.088,3.088,0,0,0-1.145.22,3.1,3.1,0,0,0-5.992,0A3.1,3.1,0,0,0,4.25,4.36,3.1,3.1,0,0,0,0,7.246V18.405a16.085,16.085,0,0,0,2.07,7.718V37.473a3.088,3.088,0,0,0,.22,1.145,3.1,3.1,0,0,0,0,5.992A3.1,3.1,0,0,0,4.36,48.75,3.1,3.1,0,0,0,7.246,53H9.741a1.035,1.035,0,1,0,0-2.07H7.246a1.035,1.035,0,0,1,0-2.07h2.07a1.035,1.035,0,1,0,0-2.07H5.176a1.035,1.035,0,1,1,0-2.07H9.316a1.035,1.035,0,1,0,0-2.07H3.105a1.035,1.035,0,0,1,0-2.07H9.316a1.035,1.035,0,1,0,0-2.07H5.176a1.035,1.035,0,1,1,0-2.07H15.527A1.035,1.035,0,0,0,16.562,35.4V34.367h2.609a6.4,6.4,0,0,1,5.78,3.565,1.035,1.035,0,0,0,.927.575h8.488v9.316a3.091,3.091,0,0,0,.178,1.035h-6.6a1.034,1.034,0,0,0-.463.109l-1.156.578a13.283,13.283,0,0,1-5.855,1.383H19.037a1.035,1.035,0,1,0,0,2.07h1.439a15.369,15.369,0,0,0,6.777-1.6l.941-.47h9.279a3.088,3.088,0,0,0,1.145-.22,3.1,3.1,0,0,0,5.992,0,3.1,3.1,0,0,0,4.141-2.07A3.1,3.1,0,0,0,53,45.754V33.332a1.03,1.03,0,0,0-.1-.439,15.477,15.477,0,0,0-1.5-5.075l-.47-.941V15.527a3.088,3.088,0,0,0-.22-1.145,3.11,3.11,0,0,0,2.29-3ZM14.492,34.367H5.176a3.091,3.091,0,0,0-1.035.178V25.879a1.034,1.034,0,0,0-.109-.463A14.588,14.588,0,0,1,2.07,18.405V7.246a1.035,1.035,0,1,1,2.07,0v2.07a1.035,1.035,0,0,0,2.07,0V5.176a1.035,1.035,0,1,1,2.07,0V9.316a1.035,1.035,0,0,0,2.07,0V3.105a1.035,1.035,0,1,1,2.07,0V9.316a1.035,1.035,0,1,0,2.07,0V5.176a1.035,1.035,0,0,1,2.07,0V15.527A1.035,1.035,0,0,0,17.6,16.562h1.035v2.609a6.488,6.488,0,0,1-3.565,5.78,1.035,1.035,0,0,0-.575.927Zm4.679-2.07H16.562v-5.8A8.463,8.463,0,0,0,20.7,19.171V16.562h5.8A8.462,8.462,0,0,0,33.829,20.7h2.609v5.8A8.463,8.463,0,0,0,32.3,33.829v2.609h-5.8A8.463,8.463,0,0,0,19.171,32.3ZM50.93,45.754a1.035,1.035,0,0,1-2.07,0v-2.07a1.035,1.035,0,0,0-2.07,0v4.141a1.035,1.035,0,0,1-2.07,0V43.684a1.035,1.035,0,0,0-2.07,0v6.211a1.035,1.035,0,0,1-2.07,0V43.684a1.035,1.035,0,0,0-2.07,0v4.141a1.035,1.035,0,0,1-2.07,0V37.473A1.035,1.035,0,0,0,35.4,36.437H34.367V33.829a6.4,6.4,0,0,1,3.565-5.78,1.035,1.035,0,0,0,.575-.927V18.633h9.316a3.091,3.091,0,0,0,1.035-.178v8.666a1.034,1.034,0,0,0,.109.463l.578,1.156a13.283,13.283,0,0,1,1.383,5.855ZM49.895,12.422H43.684a1.035,1.035,0,0,0,0,2.07h4.141a1.035,1.035,0,1,1,0,2.07H37.473A1.035,1.035,0,0,0,36.437,17.6v1.035H33.829a6.488,6.488,0,0,1-5.78-3.565,1.035,1.035,0,0,0-.927-.575H18.633V5.176a3.091,3.091,0,0,0-.178-1.035h8.666a1.035,1.035,0,0,0,.463-.109A14.588,14.588,0,0,1,34.595,2.07H45.754a1.035,1.035,0,0,1,0,2.07h-2.07a1.035,1.035,0,1,0,0,2.07h4.141a1.035,1.035,0,0,1,0,2.07H43.684a1.035,1.035,0,1,0,0,2.07h6.211a1.035,1.035,0,1,1,0,2.07Z" transform="translate(0)"/>
  <circle id="Ellipse_1266" data-name="Ellipse 1266" cx="1" cy="1" r="1" transform="translate(14 51)"/>
</svg>
