<svg xmlns="http://www.w3.org/2000/svg" width="74.51" height="54.466" viewBox="0 0 74.51 54.466">
  <g id="delivery-truck" transform="translate(0 -68.867)">
    <g id="Group_81498" data-name="Group 81498" transform="translate(0 68.867)">
      <g id="Group_81497" data-name="Group 81497" transform="translate(0 0)">
        <path id="Path_45273" data-name="Path 45273" d="M60.321,86.281H55.63l1.413-16.228c0-.029,0-.058,0-.087,0,0,0,0,0-.007h0a1.091,1.091,0,0,0-.658-1l-.01,0c-.024-.01-.049-.019-.075-.027l-.028-.01-.063-.016-.044-.011-.057-.009-.053-.007h-.009c-.019,0-.038,0-.057,0l-.038,0H33.619a1.091,1.091,0,1,0,0,2.183H54.766L52.594,95.99V96l-.548,6.293H14.119l.634-6.549h7.221a1.091,1.091,0,1,0,0-2.183h-7.01L16.3,79.732H27.8a1.091,1.091,0,1,0,0-2.183H16.516l.63-6.5H29.253a1.091,1.091,0,1,0,0-2.183h-13.1a1.092,1.092,0,0,0-1.065.861l0,.011c-.006.027-.009.055-.013.083,0,.009,0,.017,0,.026v.005l-.746,7.7H1.091a1.091,1.091,0,1,0,0,2.183h13.02L12.772,93.557H8.878a1.091,1.091,0,1,0,0,2.183H12.56l-.729,7.527v0L10.7,114.909v.008c0,.015,0,.03,0,.045s0,.04,0,.06c0,0,0,0,0,0,0,.028,0,.056,0,.083,0,.009,0,.018,0,.027,0,.028.008.056.013.084,0,.008,0,.016,0,.024s.01.041.016.062.007.029.011.043l0,.012a1.091,1.091,0,0,0,.259.427l.006.007c.012.012.024.022.037.033a1.083,1.083,0,0,0,.253.173c.019.01.038.02.058.028l.018.007c.027.011.055.021.083.03l.008,0c.032.01.065.018.1.025l.013,0c.032.006.064.011.1.014h0q.054.005.107.005H16.65a8.308,8.308,0,0,0,16.473,0H50.629a8.308,8.308,0,0,0,16.473,0h4.862c.036,0,.072,0,.108-.006l.019,0c.028,0,.057-.007.084-.013l.035-.008.064-.016.042-.014.053-.02.044-.019.048-.023.043-.024.045-.027.04-.027.043-.032.036-.029.043-.039.03-.029c.015-.015.03-.032.044-.048l.023-.026c.016-.02.031-.04.045-.061l.015-.021c.018-.027.034-.054.05-.082l0-.005c.016-.03.032-.061.045-.093,0-.009.007-.019.01-.028s.018-.045.025-.069.008-.031.013-.046.01-.036.014-.055.006-.033.009-.05.006-.029.008-.044c.046-.371.9-7.228,1.283-11.662,0,0,0-.009,0-.013.11-1.278.18-2.355.18-3.013A14.205,14.205,0,0,0,60.321,86.281ZM55.44,88.464h4.465l-.57,6.548H54.87ZM24.887,121.15a6.127,6.127,0,1,1,6.127-6.127A6.134,6.134,0,0,1,24.887,121.15Zm33.979,0a6.127,6.127,0,1,1,6.127-6.127A6.134,6.134,0,0,1,58.866,121.15ZM71,113.931H67.1a8.308,8.308,0,0,0-16.473,0H33.123a8.308,8.308,0,0,0-16.473,0H12.991l.917-9.46H53.047a1.073,1.073,0,0,0,.109-.006l.02,0c.029,0,.057-.007.085-.013l.036-.009.065-.017.042-.015.054-.02.045-.02.048-.023.044-.025.044-.027.041-.028.042-.032.037-.031.04-.037.033-.033.038-.042.029-.034.035-.047.025-.036c.011-.016.021-.033.031-.05s.015-.026.022-.039.017-.035.025-.052.013-.028.019-.043.013-.035.019-.052.011-.031.016-.047.009-.034.013-.051.009-.034.012-.052.005-.035.008-.052.006-.036.007-.054c0,0,0-.005,0-.008l.547-6.28h5.641c3.344,0,4.852,1.733,6.449,3.567,1.317,1.514,2.788,3.2,5.289,3.614C71.741,107.733,71.228,112.043,71,113.931Zm1.247-11.742c-1.622-.331-2.62-1.471-3.829-2.86-1.512-1.737-3.358-3.857-6.9-4.251l.565-6.483A12.024,12.024,0,0,1,72.327,100.47C72.327,100.879,72.3,101.473,72.245,102.189Z" transform="translate(0 -68.867)"/>
      </g>
    </g>
    <g id="Group_81500" data-name="Group 81500" transform="translate(20.885 111.02)">
      <g id="Group_81499" data-name="Group 81499">
        <path id="Path_45274" data-name="Path 45274" d="M147.51,358.524a4,4,0,1,0,4,4A4.007,4.007,0,0,0,147.51,358.524Zm0,5.821a1.819,1.819,0,1,1,1.819-1.819A1.821,1.821,0,0,1,147.51,364.345Z" transform="translate(-143.508 -358.524)"/>
      </g>
    </g>
    <g id="Group_81502" data-name="Group 81502" transform="translate(54.864 111.02)">
      <g id="Group_81501" data-name="Group 81501">
        <path id="Path_45275" data-name="Path 45275" d="M381,358.524a4,4,0,1,0,4,4A4.007,4.007,0,0,0,381,358.524Zm0,5.821a1.819,1.819,0,1,1,1.819-1.819A1.821,1.821,0,0,1,381,364.345Z" transform="translate(-376.996 -358.524)"/>
      </g>
    </g>
    <g id="Group_81504" data-name="Group 81504" transform="translate(3.905 86.281)">
      <g id="Group_81503" data-name="Group 81503" transform="translate(0 0)">
        <path id="Path_45276" data-name="Path 45276" d="M33.261,188.527H27.925a1.091,1.091,0,0,0,0,2.183h5.336a1.091,1.091,0,0,0,0-2.183Z" transform="translate(-26.834 -188.527)"/>
      </g>
    </g>
  </g>
</svg>
