<svg xmlns="http://www.w3.org/2000/svg" width="45.198" height="53" viewBox="0 0 45.198 53">
  <g id="Group_81695" data-name="Group 81695" transform="translate(-1488 -221)">
    <g id="secure-shield" transform="translate(1450.319 221)">
      <g id="Group_81694" data-name="Group 81694" transform="translate(37.681 0)">
        <g id="Group_81693" data-name="Group 81693" transform="translate(0)">
          <path id="Path_45389" data-name="Path 45389" d="M82.059,9.152a88.162,88.162,0,0,1-21.212-9,1.114,1.114,0,0,0-1.133,0,85.748,85.748,0,0,1-21.213,9,1.115,1.115,0,0,0-.82,1.075V21.618a32.771,32.771,0,0,0,9.952,23.944C52.52,50.351,58.213,53,60.281,53s7.76-2.648,12.648-7.438A32.771,32.771,0,0,0,82.88,21.618V10.227A1.115,1.115,0,0,0,82.059,9.152ZM80.65,21.618a30.586,30.586,0,0,1-9.282,22.351c-4.806,4.709-9.945,6.8-11.087,6.8S54,48.679,49.193,43.969a30.586,30.586,0,0,1-9.282-22.351V11.073a87.8,87.8,0,0,0,20.37-8.667A90.581,90.581,0,0,0,80.65,11.073Z" transform="translate(-37.681 0)"/>
        </g>
      </g>
    </g>
    <g id="dish" transform="translate(1496.326 232.996)">
      <g id="Group_81675" data-name="Group 81675" transform="translate(15.226 7.134)">
        <g id="Group_81674" data-name="Group 81674">
          <path id="Path_45378" data-name="Path 45378" d="M261,122.442l-.305-1.005a2.184,2.184,0,0,0-4.136,0l-.305,1.005a5.648,5.648,0,0,0-.157,2.617,2.461,2.461,0,0,0,1.267,1.715l-.342,7.647a1.507,1.507,0,0,0,.381,1.171,1.662,1.662,0,0,0,2.348.105q.055-.05.105-.105a1.486,1.486,0,0,0,.381-1.139l-.344-7.68a2.461,2.461,0,0,0,1.266-1.714A5.648,5.648,0,0,0,261,122.442Zm-.78,2.451a1.509,1.509,0,0,1-.987,1.137.476.476,0,0,0-.308.467l.362,8.032a.551.551,0,0,1-.143.431.735.735,0,0,1-1.034,0,.571.571,0,0,1-.14-.462l.359-8a.476.476,0,0,0-.308-.467,1.509,1.509,0,0,1-.987-1.137,4.692,4.692,0,0,1,.131-2.172l.305-1.006a1.234,1.234,0,0,1,2.314,0l.305,1.006A4.7,4.7,0,0,1,260.221,124.893Z" transform="translate(-256.012 -119.955)"/>
        </g>
      </g>
      <g id="Group_81677" data-name="Group 81677" transform="translate(8.088 7.137)">
        <g id="Group_81676" data-name="Group 81676">
          <path id="Path_45379" data-name="Path 45379" d="M140.758,120a.476.476,0,0,0-.476.476v4.085l-1.288,1.288a.476.476,0,0,0-.139.36l.416,8.326a.648.648,0,0,1-.18.485.67.67,0,0,1-.947,0l0,0a.648.648,0,0,1-.18-.485l.419-8.326a.476.476,0,0,0-.139-.36l-1.288-1.288v-4.085a.476.476,0,0,0-.952,0v4.282a.476.476,0,0,0,.139.336l1.278,1.278-.406,8.116a1.607,1.607,0,0,0,3.211.156q0-.078,0-.156l-.406-8.116,1.278-1.278a.476.476,0,0,0,.139-.336v-4.282A.476.476,0,0,0,140.758,120Z" transform="translate(-136 -120)"/>
        </g>
      </g>
      <g id="Group_81679" data-name="Group 81679" transform="translate(9.516 7.137)">
        <g id="Group_81678" data-name="Group 81678">
          <path id="Path_45380" data-name="Path 45380" d="M160.476,120a.476.476,0,0,0-.476.476v3.806a.476.476,0,1,0,.952,0v-3.806A.476.476,0,0,0,160.476,120Z" transform="translate(-160 -120)"/>
        </g>
      </g>
      <g id="Group_81681" data-name="Group 81681" transform="translate(10.943 7.137)">
        <g id="Group_81680" data-name="Group 81680">
          <path id="Path_45381" data-name="Path 45381" d="M184.476,120a.476.476,0,0,0-.476.476v3.806a.476.476,0,1,0,.952,0v-3.806A.476.476,0,0,0,184.476,120Z" transform="translate(-184 -120)"/>
        </g>
      </g>
      <g id="Group_81683" data-name="Group 81683">
        <g id="Group_81682" data-name="Group 81682">
          <path id="Path_45382" data-name="Path 45382" d="M14.273,0A14.273,14.273,0,1,0,28.547,14.273,14.273,14.273,0,0,0,14.273,0Zm0,27.6A13.322,13.322,0,1,1,27.6,14.273,13.322,13.322,0,0,1,14.273,27.6Z" stroke="#000" stroke-width="0.75"/>
        </g>
      </g>
      <g id="Group_81685" data-name="Group 81685" transform="translate(12.734 22.775)">
        <g id="Group_81684" data-name="Group 81684">
          <path id="Path_45383" data-name="Path 45383" d="M217.2,383.378a.476.476,0,0,0-.52-.427l-.018,0h0a8.74,8.74,0,0,1-2.016,0,.476.476,0,1,0-.111.945,9.638,9.638,0,0,0,2.236,0A.476.476,0,0,0,217.2,383.378Z" transform="translate(-214.113 -382.949)"/>
        </g>
      </g>
      <g id="Group_81687" data-name="Group 81687" transform="translate(20.179 7.972)">
        <g id="Group_81686" data-name="Group 81686">
          <path id="Path_45384" data-name="Path 45384" d="M340.669,134.223a.476.476,0,0,0-.67-.059l0,0a.476.476,0,0,0-.057.67,8.564,8.564,0,0,1-.5,11.584.476.476,0,1,0,.672.674A9.516,9.516,0,0,0,340.669,134.223Z" transform="translate(-339.295 -134.053)"/>
        </g>
      </g>
      <g id="Group_81690" data-name="Group 81690" transform="translate(10.609 4.759)">
        <g id="Group_81689" data-name="Group 81689">
          <g id="Group_81688" data-name="Group 81688">
            <path id="Path_45385" data-name="Path 45385" d="M186.354,105.743h0Z" transform="translate(-185.878 -104.214)"/>
            <path id="Path_45386" data-name="Path 45386" d="M184.291,80.291a9.6,9.6,0,0,0-5.6.344.475.475,0,1,0,.334.89,8.643,8.643,0,0,1,5.043-.309.476.476,0,1,0,.224-.925Z" transform="translate(-178.382 -80.027)"/>
          </g>
        </g>
      </g>
      <g id="Group_81692" data-name="Group 81692" transform="translate(4.757 8.474)">
        <g id="Group_81691" data-name="Group 81691">
          <path id="Path_45387" data-name="Path 45387" d="M83.438,154.33a8.563,8.563,0,0,1-.86-11.08.476.476,0,1,0-.761-.572l-.008.011A9.516,9.516,0,0,0,82.764,155a.477.477,0,1,0,.674-.674Z" transform="translate(-79.989 -142.488)"/>
        </g>
      </g>
    </g>
  </g>
</svg>
