<svg xmlns="http://www.w3.org/2000/svg" width="53.919" height="53.07" viewBox="0 0 53.919 53.07">
  <g id="party" transform="translate(0 -3.843)">
    <g id="Group_81521" data-name="Group 81521" transform="translate(0 14.481)">
      <g id="Group_81520" data-name="Group 81520">
        <path id="Path_45311" data-name="Path 45311" d="M27.752,100.641a.884.884,0,0,0-1.169-.442l-.017.008A61.415,61.415,0,0,1,.884,105.875a.884.884,0,1,0,0,1.768c.831,0,1.663-.035,2.494-.069l4.755,6.339a.884.884,0,0,0,.707.354.943.943,0,0,0,.1-.005.884.884,0,0,0,.707-.52l3.24-7.291q1.591-.31,3.159-.7l6.406,4.8a.884.884,0,0,0,1.406-.6l.884-7.04c.864-.354,1.724-.714,2.569-1.107A.884.884,0,0,0,27.752,100.641ZM8.644,111.648l-3.15-4.2c1.768-.132,3.536-.325,5.286-.606Zm13.65-3.422-4.066-3.049c1.567-.45,3.112-.972,4.638-1.538Z" transform="translate(0 -100.12)"/>
      </g>
    </g>
    <g id="Group_81524" data-name="Group 81524" transform="translate(0 31.28)">
      <g id="Group_81523" data-name="Group 81523">
        <g id="Group_81522" data-name="Group 81522">
          <path id="Path_45312" data-name="Path 45312" d="M229.648,302.494h0Z" transform="translate(-204.274 -296.933)"/>
          <path id="Path_45313" data-name="Path 45313" d="M25.376,257.721l-5.3-5.3a.884.884,0,0,0-1.25,0l-7.742,7.741a4.631,4.631,0,0,0-.562,5.867l-4.7,4.7H.886a.884.884,0,0,0-.625,1.509l5.3,5.3a.884.884,0,0,0,1.509-.625v-4.938l4.7-4.7a4.628,4.628,0,0,0,5.867-.564l3.321-3.32,4.42-4.42A.884.884,0,0,0,25.376,257.721ZM5.305,274.776,3.019,272.49H5.305Zm11.079-9.312a2.855,2.855,0,0,1-4.87-1.813H18.2Zm3.582-3.581H11.953a2.965,2.965,0,0,1,.378-.474l7.116-7.116,4.054,4.054Z" transform="translate(-0.002 -252.16)"/>
        </g>
      </g>
    </g>
    <g id="Group_81526" data-name="Group 81526" transform="translate(28.284 31.28)">
      <g id="Group_81525" data-name="Group 81525">
        <path id="Path_45314" data-name="Path 45314" d="M281.554,271.267a.884.884,0,0,0-.817-.545H275.8l-4.7-4.7a4.631,4.631,0,0,0-.563-5.867l-7.741-7.74a.884.884,0,0,0-1.25,0l-5.3,5.3a.884.884,0,0,0,0,1.25l3.536,3.536,4.2,4.2a4.629,4.629,0,0,0,5.867.564l4.7,4.7v4.938a.884.884,0,0,0,1.509.625l5.3-5.3A.884.884,0,0,0,281.554,271.267Zm-23.433-12.92,4.054-4.054L268.88,261h-8.107Zm9.815,7.875a2.861,2.861,0,0,1-2.7-.76h0l-2.7-2.7h7.5A2.861,2.861,0,0,1,267.936,266.222Zm8.381,8.554V272.49H278.6Z" transform="translate(-255.986 -252.16)"/>
      </g>
    </g>
    <g id="Group_81528" data-name="Group 81528" transform="translate(12.375 3.843)">
      <g id="Group_81527" data-name="Group 81527">
        <path id="Path_45315" data-name="Path 45315" d="M151.774,11.833H140.588a51.091,51.091,0,0,1-27.236-7.855.884.884,0,0,0-.94,1.5c1.3.82,2.644,1.574,4.006,2.274v7.619a.884.884,0,0,0,1.414.707l6.651-4.988q2.182.7,4.42,1.2l2.6,6.925a.884.884,0,0,0,.674.56.918.918,0,0,0,.156.013A.884.884,0,0,0,133,19.48l5.1-5.944c.829.039,1.66.065,2.494.065h.088l4.161,6.656a.884.884,0,0,0,1.5,0L150.5,13.6h1.278a.884.884,0,1,0,0-1.768ZM118.185,13.6V8.617c1.4.654,2.822,1.253,4.27,1.781Zm14.445,3.592-1.68-4.476q2.45.453,4.946.673Zm12.956.927L142.758,13.6h5.657Z" transform="translate(-111.997 -3.843)"/>
      </g>
    </g>
    <g id="Group_81530" data-name="Group 81530" transform="translate(25.634 26.153)">
      <g id="Group_81529" data-name="Group 81529">
        <path id="Path_45316" data-name="Path 45316" d="M232.884,205.758a.884.884,0,0,0-.884.884v2.652a.884.884,0,0,0,1.768,0v-2.652A.884.884,0,0,0,232.884,205.758Z" transform="translate(-232 -205.758)"/>
      </g>
    </g>
    <g id="Group_81532" data-name="Group 81532" transform="translate(21.656 27.215)">
      <g id="Group_81531" data-name="Group 81531">
        <path id="Path_45317" data-name="Path 45317" d="M198.974,218.113l-1.326-2.3a.884.884,0,0,0-1.531.884l1.326,2.3a.884.884,0,0,0,1.531-.884Z" transform="translate(-195.999 -215.373)"/>
      </g>
    </g>
    <g id="Group_81534" data-name="Group 81534" transform="translate(21.653 41.886)">
      <g id="Group_81533" data-name="Group 81533">
        <path id="Path_45318" data-name="Path 45318" d="M198.627,348.276a.884.884,0,0,0-1.207.324l-1.326,2.3a.884.884,0,0,0,1.525.894l.006-.01,1.326-2.3A.884.884,0,0,0,198.627,348.276Z" transform="translate(-195.972 -348.157)"/>
      </g>
    </g>
    <g id="Group_81536" data-name="Group 81536" transform="translate(25.634 42.594)">
      <g id="Group_81535" data-name="Group 81535">
        <path id="Path_45319" data-name="Path 45319" d="M232.884,354.558a.884.884,0,0,0-.884.884v2.652a.884.884,0,1,0,1.768,0v-2.652A.884.884,0,0,0,232.884,354.558Z" transform="translate(-232 -354.558)"/>
      </g>
    </g>
    <g id="Group_81538" data-name="Group 81538" transform="translate(28.281 41.881)">
      <g id="Group_81537" data-name="Group 81537">
        <path id="Path_45320" data-name="Path 45320" d="M258.942,350.855l-1.326-2.3a.884.884,0,0,0-1.537.874l.006.01,1.326,2.3a.884.884,0,1,0,1.531-.884Z" transform="translate(-255.964 -348.11)"/>
      </g>
    </g>
    <g id="Group_81540" data-name="Group 81540" transform="translate(28.282 27.208)">
      <g id="Group_81539" data-name="Group 81539">
        <path id="Path_45321" data-name="Path 45321" d="M258.635,215.431a.884.884,0,0,0-1.21.315l-.006.01-1.326,2.3a.884.884,0,1,0,1.525.894l.006-.01,1.326-2.3A.884.884,0,0,0,258.635,215.431Z" transform="translate(-255.972 -215.31)"/>
      </g>
    </g>
    <g id="Group_81542" data-name="Group 81542" transform="translate(35.357 49.842)">
      <g id="Group_81541" data-name="Group 81541">
        <path id="Path_45322" data-name="Path 45322" d="M322.652,420.158a2.652,2.652,0,1,0,2.652,2.652A2.652,2.652,0,0,0,322.652,420.158Zm0,3.536a.884.884,0,1,1,.884-.884A.884.884,0,0,1,322.652,423.694Z" transform="translate(-320 -420.158)"/>
      </g>
    </g>
    <g id="Group_81544" data-name="Group 81544" transform="translate(6.187 30.395)">
      <g id="Group_81543" data-name="Group 81543">
        <path id="Path_45323" data-name="Path 45323" d="M58.652,244.158A2.652,2.652,0,1,0,61.3,246.81,2.652,2.652,0,0,0,58.652,244.158Zm0,3.536a.884.884,0,1,1,.884-.884A.884.884,0,0,1,58.652,247.694Z" transform="translate(-56 -244.158)"/>
      </g>
    </g>
    <g id="Group_81546" data-name="Group 81546" transform="translate(37.125 22.44)">
      <g id="Group_81545" data-name="Group 81545">
        <path id="Path_45324" data-name="Path 45324" d="M339.522,173.647a1.768,1.768,0,0,0-.708-1.153h0a1.766,1.766,0,1,0,.711,1.153Z" transform="translate(-336.005 -172.157)"/>
      </g>
    </g>
    <g id="Group_81548" data-name="Group 81548" transform="translate(17.678 48.958)">
      <g id="Group_81547" data-name="Group 81547">
        <circle id="Ellipse_1259" data-name="Ellipse 1259" cx="1.768" cy="1.768" r="1.768"/>
      </g>
    </g>
    <g id="Group_81550" data-name="Group 81550" transform="translate(45.964 32.163)">
      <g id="Group_81549" data-name="Group 81549">
        <path id="Path_45325" data-name="Path 45325" d="M416.884,260.158a.884.884,0,0,0-.884.884v.884a.884.884,0,0,0,1.768,0v-.884A.884.884,0,0,0,416.884,260.158Z" transform="translate(-416 -260.158)"/>
      </g>
    </g>
    <g id="Group_81552" data-name="Group 81552" transform="translate(45.964 27.744)">
      <g id="Group_81551" data-name="Group 81551">
        <path id="Path_45326" data-name="Path 45326" d="M416.884,220.158a.884.884,0,0,0-.884.884v.884a.884.884,0,1,0,1.768,0v-.884A.884.884,0,0,0,416.884,220.158Z" transform="translate(-416 -220.158)"/>
      </g>
    </g>
    <g id="Group_81554" data-name="Group 81554" transform="translate(47.732 30.395)">
      <g id="Group_81553" data-name="Group 81553">
        <path id="Path_45327" data-name="Path 45327" d="M433.768,244.158h-.884a.884.884,0,0,0,0,1.768h.884a.884.884,0,1,0,0-1.768Z" transform="translate(-432 -244.158)"/>
      </g>
    </g>
    <g id="Group_81556" data-name="Group 81556" transform="translate(43.312 30.395)">
      <g id="Group_81555" data-name="Group 81555">
        <path id="Path_45328" data-name="Path 45328" d="M393.768,244.158h-.884a.884.884,0,0,0,0,1.768h.884a.884.884,0,0,0,0-1.768Z" transform="translate(-392 -244.158)"/>
      </g>
    </g>
    <g id="Group_81558" data-name="Group 81558" transform="translate(28.285 54.261)">
      <g id="Group_81557" data-name="Group 81557">
        <path id="Path_45329" data-name="Path 45329" d="M256.884,460.158a.884.884,0,0,0-.884.884v.884a.884.884,0,0,0,1.768,0v-.884A.884.884,0,0,0,256.884,460.158Z" transform="translate(-256 -460.158)"/>
      </g>
    </g>
    <g id="Group_81560" data-name="Group 81560" transform="translate(28.285 49.842)">
      <g id="Group_81559" data-name="Group 81559">
        <path id="Path_45330" data-name="Path 45330" d="M256.884,420.158a.884.884,0,0,0-.884.884v.884a.884.884,0,0,0,1.768,0v-.884A.884.884,0,0,0,256.884,420.158Z" transform="translate(-256 -420.158)"/>
      </g>
    </g>
    <g id="Group_81562" data-name="Group 81562" transform="translate(30.053 52.493)">
      <g id="Group_81561" data-name="Group 81561">
        <path id="Path_45331" data-name="Path 45331" d="M273.768,444.158h-.884a.884.884,0,1,0,0,1.768h.884a.884.884,0,0,0,0-1.768Z" transform="translate(-272 -444.158)"/>
      </g>
    </g>
    <g id="Group_81564" data-name="Group 81564" transform="translate(25.634 52.493)">
      <g id="Group_81563" data-name="Group 81563">
        <path id="Path_45332" data-name="Path 45332" d="M233.768,444.158h-.884a.884.884,0,1,0,0,1.768h.884a.884.884,0,0,0,0-1.768Z" transform="translate(-232 -444.158)"/>
      </g>
    </g>
  </g>
</svg>
