<svg xmlns="http://www.w3.org/2000/svg" width="51.686" height="53.356" viewBox="0 0 51.686 53.356">
  <g id="wallet" transform="translate(-8.008 0)">
    <g id="Group_81671" data-name="Group 81671" transform="translate(8.008 0)">
      <g id="Group_81670" data-name="Group 81670">
        <path id="Path_45371" data-name="Path 45371" d="M57.985,31.252h-.8V24.06A3.377,3.377,0,0,0,55.755,21.3v-.979a2.579,2.579,0,0,0-2.576-2.576h-.6L54.863,14.4a2.465,2.465,0,0,0-.648-3.422L38.737.429a2.462,2.462,0,0,0-3.422.648l-13.36,19.6H18.238l.9-9.08a.269.269,0,0,1,.169-.226,5.78,5.78,0,0,0,2.82-2.291.268.268,0,0,1,.253-.119l5.831.576a.76.76,0,1,0,.149-1.513l-5.831-.576a1.779,1.779,0,0,0-1.685.815,4.249,4.249,0,0,1-2.073,1.684,1.777,1.777,0,0,0-1.146,1.5l-.912,9.229H15.74L17.159,6.32a.942.942,0,0,1,1.03-.845L29.972,6.64a.76.76,0,0,0,.149-1.513L18.338,3.963a2.466,2.466,0,0,0-2.693,2.208L14.5,17.746H12.555a2.579,2.579,0,0,0-2.576,2.576v.668A3.383,3.383,0,0,0,8.008,24.06V49.977a3.383,3.383,0,0,0,3.379,3.379H53.808a3.383,3.383,0,0,0,3.379-3.379V42.785h.8a1.711,1.711,0,0,0,1.709-1.709V32.961A1.711,1.711,0,0,0,57.985,31.252ZM53.179,19.266h0a1.057,1.057,0,0,1,1.056,1.056v.387a3.388,3.388,0,0,0-.426-.028H50.582l.964-1.415ZM36.572,1.933a.936.936,0,0,1,.6-.4.956.956,0,0,1,.177-.017.936.936,0,0,1,.528.164L53.359,12.233a.943.943,0,0,1,.248,1.309l-4.865,7.139H47.574l2.385-3.5a1.777,1.777,0,0,0,.083-1.885,4.249,4.249,0,0,1-.509-2.623,1.778,1.778,0,0,0-.769-1.706L40.74,5.5a1.778,1.778,0,0,0-1.87-.092,4.25,4.25,0,0,1-2.627.485,1.8,1.8,0,0,0-1.724.767L24.963,20.681H23.8Zm.335,12.911a6.274,6.274,0,0,0-6.25,5.837H26.8L35.775,7.515h0A.271.271,0,0,1,36,7.4l.035,0a5.78,5.78,0,0,0,3.573-.66.268.268,0,0,1,.278.017l8.024,5.468a.269.269,0,0,1,.118.253,5.779,5.779,0,0,0,.693,3.567.27.27,0,0,1-.015.282l-2.969,4.356H43.157A6.274,6.274,0,0,0,36.907,14.844Zm4.726,5.837H32.181a4.745,4.745,0,0,1,9.451,0ZM11.5,20.322a1.057,1.057,0,0,1,1.056-1.056h1.8l-.14,1.415H11.5ZM9.529,24.06A1.861,1.861,0,0,1,11.387,22.2H53.808a1.861,1.861,0,0,1,1.859,1.859v2.11H9.529ZM55.666,49.977a1.861,1.861,0,0,1-1.859,1.859H11.387a1.861,1.861,0,0,1-1.859-1.859v-2.11h4.1a.76.76,0,0,0,0-1.52h-4.1V27.69H55.666v3.562H48.438A5.773,5.773,0,0,0,43.251,34.5l-.01.019c-.008.016-.015.033-.023.05a5.732,5.732,0,0,0-.287.735v0a5.768,5.768,0,0,0,5.507,7.477h7.229v3.562H18.5a.76.76,0,0,0,0,1.52h37.17Zm2.508-8.9a.189.189,0,0,1-.189.189H48.438a4.25,4.25,0,0,1-3.733-2.224q-.049-.09-.094-.183-.09-.186-.161-.381a4.25,4.25,0,0,1,0-2.917q.072-.195.161-.381.045-.093.094-.183a4.25,4.25,0,0,1,3.733-2.224h9.548a.189.189,0,0,1,.189.189Z" transform="translate(-8.008 0)"/>
      </g>
    </g>
    <g id="Group_81673" data-name="Group 81673" transform="translate(45.531 33.934)">
      <g id="Group_81672" data-name="Group 81672">
        <path id="Path_45372" data-name="Path 45372" d="M371.166,325.627a3.085,3.085,0,1,0,3.085,3.085A3.088,3.088,0,0,0,371.166,325.627Zm0,4.649a1.564,1.564,0,1,1,1.564-1.564A1.566,1.566,0,0,1,371.166,330.276Z" transform="translate(-368.081 -325.627)"/>
      </g>
    </g>
  </g>
</svg>
