<svg xmlns="http://www.w3.org/2000/svg" width="189" height="49.152" viewBox="0 0 189 49.152">
  <g id="Group_2910" data-name="Group 2910" transform="translate(-1145 204)">
    <g id="Group_1259" data-name="Group 1259" transform="translate(1245.015 -195.757)">
      <g id="Group_1257" data-name="Group 1257" transform="translate(0)">
        <path id="Path_2171" data-name="Path 2171" d="M492.384,1399.893a1.63,1.63,0,0,1-.447-1.208v-20.033a1.632,1.632,0,0,1,.447-1.209,1.681,1.681,0,0,1,1.242-.446h6.49q5.663,0,8.775,3.047t3.113,8.608q0,5.564-3.113,8.627t-8.775,3.062h-6.49A1.678,1.678,0,0,1,492.384,1399.893Zm7.533-2.4q8.61,0,8.609-8.841,0-8.807-8.609-8.807h-4.569v17.648Z" transform="translate(-491.937 -1376.731)" fill="#fff"/>
        <path id="Path_2172" data-name="Path 2172" d="M546.925,1398.925a1.333,1.333,0,0,1-.513,1.059,1.74,1.74,0,0,1-1.142.43,1.465,1.465,0,0,1-.812-.248,1.55,1.55,0,0,1-.579-.713l-2.186-4.966H529.575l-2.185,4.966a1.529,1.529,0,0,1-.6.713,1.548,1.548,0,0,1-.828.248,1.782,1.782,0,0,1-1.176-.43,1.331,1.331,0,0,1-.513-1.059,1.784,1.784,0,0,1,.167-.663l9.337-20.429a1.739,1.739,0,0,1,.745-.828,2.09,2.09,0,0,1,2.153,0,1.748,1.748,0,0,1,.745.828l9.337,20.429A1.808,1.808,0,0,1,546.925,1398.925Zm-16.126-7.153h9.7l-4.867-10.959Z" transform="translate(-502.026 -1376.641)" fill="#fff"/>
        <path id="Path_2173" data-name="Path 2173" d="M564.337,1399.789a9.484,9.484,0,0,1-3.626-1.92,1.7,1.7,0,0,1-.629-1.357,1.566,1.566,0,0,1,.331-1.01.989.989,0,0,1,.795-.414,2.2,2.2,0,0,1,1.126.43,10.991,10.991,0,0,0,6.722,2.186,7.066,7.066,0,0,0,4.072-.994,3.261,3.261,0,0,0,1.424-2.847,2.351,2.351,0,0,0-1.325-2.185,17.454,17.454,0,0,0-4.238-1.391,25.514,25.514,0,0,1-4.569-1.357,6.823,6.823,0,0,1-2.8-2.07,5.289,5.289,0,0,1-1.009-3.328,6.081,6.081,0,0,1,1.109-3.593,7.282,7.282,0,0,1,3.1-2.45,11.125,11.125,0,0,1,4.536-.877,13.658,13.658,0,0,1,4.337.662,9.136,9.136,0,0,1,3.378,1.954,1.725,1.725,0,0,1,.662,1.358,1.536,1.536,0,0,1-.347.993,1.021,1.021,0,0,1-.811.431,2.167,2.167,0,0,1-1.093-.431,11.851,11.851,0,0,0-2.864-1.672,9.053,9.053,0,0,0-3.229-.513,6.613,6.613,0,0,0-3.973,1.043,3.389,3.389,0,0,0-1.424,2.9,2.671,2.671,0,0,0,1.258,2.4,13.69,13.69,0,0,0,4.04,1.474,33.464,33.464,0,0,1,4.718,1.374,7.243,7.243,0,0,1,2.881,1.954,4.7,4.7,0,0,1,1.076,3.195,5.879,5.879,0,0,1-1.109,3.526,7.144,7.144,0,0,1-3.112,2.385,11.83,11.83,0,0,1-4.62.844A16.219,16.219,0,0,1,564.337,1399.789Z" transform="translate(-513.196 -1376.611)" fill="#fff"/>
        <path id="Path_2174" data-name="Path 2174" d="M611.518,1377.235a1.715,1.715,0,0,1,.464,1.242v20.231a1.714,1.714,0,0,1-.464,1.242,1.625,1.625,0,0,1-1.225.48,1.654,1.654,0,0,1-1.225-.464,1.693,1.693,0,0,1-.464-1.258V1389.8H595.558v8.907a1.716,1.716,0,0,1-.463,1.242,1.627,1.627,0,0,1-1.225.48,1.657,1.657,0,0,1-1.225-.464,1.7,1.7,0,0,1-.463-1.258v-20.231a1.712,1.712,0,0,1,.463-1.242,1.8,1.8,0,0,1,2.451,0,1.718,1.718,0,0,1,.463,1.242v8.543H608.6v-8.543a1.709,1.709,0,0,1,.464-1.242,1.8,1.8,0,0,1,2.449,0Z" transform="translate(-523.209 -1376.656)" fill="#fff"/>
      </g>
      <g id="Group_1258" data-name="Group 1258" transform="translate(0.096 28.977)">
        <path id="Path_2175" data-name="Path 2175" d="M492.947,1422.676a1.642,1.642,0,0,1-.647-.728,2.911,2.911,0,0,1,0-2.241,1.642,1.642,0,0,1,.647-.724,1.891,1.891,0,0,1,.994-.255,2.117,2.117,0,0,1,.743.131,1.64,1.64,0,0,1,.6.376.227.227,0,0,1,.082.169.172.172,0,0,1-.038.111.11.11,0,0,1-.085.047.232.232,0,0,1-.134-.058,2.183,2.183,0,0,0-.571-.355,1.662,1.662,0,0,0-.6-.1,1.345,1.345,0,0,0-1.093.466,2.427,2.427,0,0,0,0,2.628,1.343,1.343,0,0,0,1.093.466,1.679,1.679,0,0,0,.6-.1,2.2,2.2,0,0,0,.571-.356.276.276,0,0,1,.134-.058.107.107,0,0,1,.085.047.172.172,0,0,1,.038.111.229.229,0,0,1-.082.169,1.63,1.63,0,0,1-.6.375,2.117,2.117,0,0,1-.743.131A1.889,1.889,0,0,1,492.947,1422.676Z" transform="translate(-492.076 -1418.727)" fill="#fff"/>
        <path id="Path_2176" data-name="Path 2176" d="M500.251,1423.314a1.2,1.2,0,0,1-.457-.513,1.924,1.924,0,0,1,0-1.55,1.215,1.215,0,0,1,.457-.513,1.391,1.391,0,0,1,1.367,0,1.2,1.2,0,0,1,.458.513,1.961,1.961,0,0,1,0,1.55,1.185,1.185,0,0,1-.458.513,1.381,1.381,0,0,1-1.367,0Zm1.373-.431a1.6,1.6,0,0,0,0-1.71.922.922,0,0,0-1.372,0,1.634,1.634,0,0,0-.005,1.71.829.829,0,0,0,.688.3A.846.846,0,0,0,501.624,1422.882Z" transform="translate(-494.433 -1419.298)" fill="#fff"/>
        <path id="Path_2177" data-name="Path 2177" d="M508.884,1421.653v1.65a.183.183,0,0,1-.046.131.169.169,0,0,1-.129.05.17.17,0,0,1-.18-.18v-1.626a.913.913,0,0,0-.169-.612.676.676,0,0,0-.536-.192.9.9,0,0,0-.673.257.933.933,0,0,0-.253.687v1.486a.184.184,0,0,1-.047.131.167.167,0,0,1-.128.05.178.178,0,0,1-.131-.05.176.176,0,0,1-.049-.131v-2.553a.177.177,0,0,1,.049-.131.181.181,0,0,1,.131-.05.166.166,0,0,1,.122.047.174.174,0,0,1,.047.128v.367a.942.942,0,0,1,.387-.411,1.175,1.175,0,0,1,.586-.142Q508.884,1420.558,508.884,1421.653Z" transform="translate(-496.589 -1419.298)" fill="#fff"/>
        <path id="Path_2178" data-name="Path 2178" d="M515.386,1420.571a.171.171,0,0,1,.116.047.144.144,0,0,1,.053.111.166.166,0,0,1-.018.076l-1.154,2.535a.224.224,0,0,1-.085.1.217.217,0,0,1-.119.035.229.229,0,0,1-.125-.035.224.224,0,0,1-.085-.1l-1.16-2.535a.162.162,0,0,1-.017-.07.148.148,0,0,1,.061-.119.2.2,0,0,1,.131-.05.151.151,0,0,1,.152.105l1.049,2.354,1.049-2.348A.157.157,0,0,1,515.386,1420.571Z" transform="translate(-498.539 -1419.3)" fill="#fff"/>
        <path id="Path_2179" data-name="Path 2179" d="M521.8,1422.891a.154.154,0,0,1,.038.1q0,.128-.2.25a1.7,1.7,0,0,1-.886.251,1.346,1.346,0,0,1-1.02-.39,1.492,1.492,0,0,1-.373-1.073,1.722,1.722,0,0,1,.166-.772,1.239,1.239,0,0,1,.466-.519,1.3,1.3,0,0,1,.691-.183,1.108,1.108,0,0,1,.866.352,1.4,1.4,0,0,1,.318.97.22.22,0,0,1-.047.155.2.2,0,0,1-.151.05h-1.941a1.212,1.212,0,0,0,.28.816.965.965,0,0,0,.74.279,1.146,1.146,0,0,0,.42-.067,2.861,2.861,0,0,0,.361-.178.419.419,0,0,1,.18-.087A.117.117,0,0,1,521.8,1422.891Zm-1.768-1.786a1.177,1.177,0,0,0-.292.717h1.8a1.1,1.1,0,0,0-.233-.719.78.78,0,0,0-.623-.255A.86.86,0,0,0,520.035,1421.1Z" transform="translate(-500.589 -1419.298)" fill="#fff"/>
        <path id="Path_2180" data-name="Path 2180" d="M528.458,1421.653v1.65a.183.183,0,0,1-.047.131.168.168,0,0,1-.128.05.17.17,0,0,1-.181-.18v-1.626a.913.913,0,0,0-.169-.612.675.675,0,0,0-.535-.192.9.9,0,0,0-.674.257.933.933,0,0,0-.253.687v1.486a.184.184,0,0,1-.047.131.166.166,0,0,1-.128.05.17.17,0,0,1-.18-.18v-2.553a.171.171,0,0,1,.18-.181.169.169,0,0,1,.123.047.173.173,0,0,1,.046.128v.367a.94.94,0,0,1,.388-.411,1.172,1.172,0,0,1,.585-.142Q528.457,1420.558,528.458,1421.653Z" transform="translate(-502.695 -1419.298)" fill="#fff"/>
        <path id="Path_2181" data-name="Path 2181" d="M532.853,1419.318a.241.241,0,0,1-.073-.181.248.248,0,0,1,.073-.187.263.263,0,0,1,.189-.069.267.267,0,0,1,.19.069.251.251,0,0,1,.072.187.243.243,0,0,1-.072.181.267.267,0,0,1-.19.069A.263.263,0,0,1,532.853,1419.318Zm.058,3.595a.174.174,0,0,1-.05-.133v-2.553a.175.175,0,0,1,.05-.134.184.184,0,0,1,.131-.047.176.176,0,0,1,.129.047.182.182,0,0,1,.046.134v2.553a.181.181,0,0,1-.046.133.176.176,0,0,1-.129.047A.183.183,0,0,1,532.911,1422.913Z" transform="translate(-504.774 -1418.775)" fill="#fff"/>
        <path id="Path_2182" data-name="Path 2182" d="M538.988,1422.891a.153.153,0,0,1,.037.1c0,.085-.065.169-.2.25a1.7,1.7,0,0,1-.885.251,1.343,1.343,0,0,1-1.02-.39,1.49,1.49,0,0,1-.373-1.073,1.722,1.722,0,0,1,.166-.772,1.234,1.234,0,0,1,.466-.519,1.3,1.3,0,0,1,.691-.183,1.105,1.105,0,0,1,.865.352,1.4,1.4,0,0,1,.318.97.219.219,0,0,1-.047.155.2.2,0,0,1-.151.05h-1.94a1.212,1.212,0,0,0,.279.816.966.966,0,0,0,.74.279,1.147,1.147,0,0,0,.42-.067,2.808,2.808,0,0,0,.361-.178.416.416,0,0,1,.181-.087A.117.117,0,0,1,538.988,1422.891Zm-1.769-1.786a1.177,1.177,0,0,0-.291.717h1.8a1.1,1.1,0,0,0-.233-.719.782.782,0,0,0-.623-.255A.861.861,0,0,0,537.219,1421.1Z" transform="translate(-505.95 -1419.298)" fill="#fff"/>
        <path id="Path_2183" data-name="Path 2183" d="M545.642,1421.653v1.65a.183.183,0,0,1-.047.131.168.168,0,0,1-.129.05.17.17,0,0,1-.18-.18v-1.626a.913.913,0,0,0-.169-.612.676.676,0,0,0-.536-.192.9.9,0,0,0-.673.257.933.933,0,0,0-.254.687v1.486a.183.183,0,0,1-.046.131.168.168,0,0,1-.128.05.17.17,0,0,1-.181-.18v-2.553a.178.178,0,0,1,.05-.131.18.18,0,0,1,.131-.05.165.165,0,0,1,.122.047.174.174,0,0,1,.047.128v.367a.946.946,0,0,1,.387-.411,1.176,1.176,0,0,1,.586-.142Q545.642,1420.558,545.642,1421.653Z" transform="translate(-508.056 -1419.298)" fill="#fff"/>
        <path id="Path_2184" data-name="Path 2184" d="M550.444,1423.314a1.2,1.2,0,0,1-.46-.513,1.867,1.867,0,0,1,0-1.536,1.258,1.258,0,0,1,.466-.522,1.282,1.282,0,0,1,.691-.186,1.623,1.623,0,0,1,.431.058,1.168,1.168,0,0,1,.373.175.652.652,0,0,1,.149.137.222.222,0,0,1,.043.131.155.155,0,0,1-.034.105.113.113,0,0,1-.087.041.388.388,0,0,1-.187-.1,1.46,1.46,0,0,0-.3-.174.927.927,0,0,0-.367-.065.871.871,0,0,0-.711.312,1.316,1.316,0,0,0-.257.86,1.268,1.268,0,0,0,.254.842.875.875,0,0,0,.708.3.926.926,0,0,0,.37-.064,2.309,2.309,0,0,0,.323-.175c.034-.023.069-.045.1-.064a.171.171,0,0,1,.078-.029.116.116,0,0,1,.094.04.145.145,0,0,1,.035.1.191.191,0,0,1-.041.122.764.764,0,0,1-.157.134,1.213,1.213,0,0,1-.382.183,1.552,1.552,0,0,1-.445.068A1.3,1.3,0,0,1,550.444,1423.314Z" transform="translate(-510.09 -1419.298)" fill="#fff"/>
        <path id="Path_2185" data-name="Path 2185" d="M558.315,1422.891a.153.153,0,0,1,.038.1q0,.128-.2.25a1.7,1.7,0,0,1-.886.251,1.343,1.343,0,0,1-1.02-.39,1.492,1.492,0,0,1-.373-1.073,1.712,1.712,0,0,1,.166-.772,1.234,1.234,0,0,1,.466-.519,1.294,1.294,0,0,1,.691-.183,1.109,1.109,0,0,1,.865.352,1.4,1.4,0,0,1,.317.97.22.22,0,0,1-.047.155.2.2,0,0,1-.152.05h-1.94a1.215,1.215,0,0,0,.279.816.969.969,0,0,0,.741.279,1.146,1.146,0,0,0,.42-.067,2.855,2.855,0,0,0,.36-.178.413.413,0,0,1,.181-.087A.117.117,0,0,1,558.315,1422.891Zm-1.769-1.786a1.178,1.178,0,0,0-.292.717h1.8a1.106,1.106,0,0,0-.233-.719.782.782,0,0,0-.623-.255A.861.861,0,0,0,556.546,1421.1Z" transform="translate(-511.979 -1419.298)" fill="#fff"/>
        <path id="Path_2186" data-name="Path 2186" d="M570.671,1418.805a.189.189,0,0,1,.049.134v3.794a.192.192,0,0,1-.046.134.165.165,0,0,1-.129.053.149.149,0,0,1-.122-.049.208.208,0,0,1-.041-.137V1419.5l-1.382,2.67a.205.205,0,0,1-.385,0l-1.393-2.646v3.211a.212.212,0,0,1-.041.137.15.15,0,0,1-.123.049.168.168,0,0,1-.131-.049.2.2,0,0,1-.043-.137v-3.794a.188.188,0,0,1,.05-.134.179.179,0,0,1,.137-.052.2.2,0,0,1,.175.134l1.567,3.007,1.545-3.007c.047-.089.1-.134.174-.134A.181.181,0,0,1,570.671,1418.805Z" transform="translate(-515.414 -1418.735)" fill="#fff"/>
        <path id="Path_2187" data-name="Path 2187" d="M577.783,1420.826a1.139,1.139,0,0,1,.254.81v1.661a.18.18,0,0,1-.047.131.166.166,0,0,1-.127.05.169.169,0,0,1-.129-.05.179.179,0,0,1-.047-.131v-.35a.905.905,0,0,1-.356.405,1,1,0,0,1-.536.143,1.125,1.125,0,0,1-.5-.111.881.881,0,0,1-.359-.309.775.775,0,0,1-.131-.437.692.692,0,0,1,.163-.49,1,1,0,0,1,.541-.25,5.718,5.718,0,0,1,1.055-.076h.122v-.215a.833.833,0,0,0-.157-.562.631.631,0,0,0-.5-.178,1.6,1.6,0,0,0-.822.228l-.089.061a.239.239,0,0,1-.126.049.12.12,0,0,1-.1-.043.157.157,0,0,1-.037-.108c0-.085.067-.169.2-.251a1.856,1.856,0,0,1,.455-.181,1.99,1.99,0,0,1,.495-.063A1.006,1.006,0,0,1,577.783,1420.826Zm-.339,2.1a.911.911,0,0,0,.242-.652v-.193h-.11a5.907,5.907,0,0,0-.857.047.815.815,0,0,0-.42.16.429.429,0,0,0-.122.33.51.51,0,0,0,.186.4.679.679,0,0,0,.46.16A.812.812,0,0,0,577.445,1422.929Z" transform="translate(-518.196 -1419.298)" fill="#fff"/>
        <path id="Path_2188" data-name="Path 2188" d="M584.7,1418.8a.18.18,0,0,1,.05.131v3.8a.171.171,0,0,1-.181.181.166.166,0,0,1-.128-.05.182.182,0,0,1-.047-.131v-.385a.933.933,0,0,1-.379.435,1.145,1.145,0,0,1-.594.149,1.2,1.2,0,0,1-.658-.183,1.22,1.22,0,0,1-.442-.519,1.815,1.815,0,0,1-.158-.778,1.761,1.761,0,0,1,.158-.767,1.167,1.167,0,0,1,1.1-.689,1.145,1.145,0,0,1,.594.148.938.938,0,0,1,.379.434v-1.643a.184.184,0,0,1,.047-.131.166.166,0,0,1,.128-.05A.178.178,0,0,1,584.7,1418.8Zm-.548,3.515a1.333,1.333,0,0,0,.242-.854,1.357,1.357,0,0,0-.239-.857.819.819,0,0,0-.683-.3.846.846,0,0,0-.693.3,1.309,1.309,0,0,0-.244.849,1.343,1.343,0,0,0,.244.859.931.931,0,0,0,1.373.006Z" transform="translate(-520.18 -1418.735)" fill="#fff"/>
        <path id="Path_2189" data-name="Path 2189" d="M591.49,1422.891a.153.153,0,0,1,.037.1c0,.085-.065.169-.2.25a1.7,1.7,0,0,1-.885.251,1.343,1.343,0,0,1-1.02-.39,1.49,1.49,0,0,1-.373-1.073,1.713,1.713,0,0,1,.166-.772,1.235,1.235,0,0,1,.466-.519,1.3,1.3,0,0,1,.691-.183,1.106,1.106,0,0,1,.865.352,1.4,1.4,0,0,1,.317.97.22.22,0,0,1-.046.155.2.2,0,0,1-.152.05h-1.94a1.212,1.212,0,0,0,.28.816.966.966,0,0,0,.74.279,1.147,1.147,0,0,0,.42-.067,2.851,2.851,0,0,0,.36-.178.414.414,0,0,1,.181-.087A.117.117,0,0,1,591.49,1422.891Zm-1.77-1.786a1.173,1.173,0,0,0-.29.717h1.8a1.1,1.1,0,0,0-.233-.719.782.782,0,0,0-.623-.255A.864.864,0,0,0,589.72,1421.1Z" transform="translate(-522.328 -1419.298)" fill="#fff"/>
        <path id="Path_2190" data-name="Path 2190" d="M603.167,1422.788a.138.138,0,0,1-.05.107.167.167,0,0,1-.114.043.179.179,0,0,1-.157-.093l-.786-1.259a1.05,1.05,0,0,0-.347-.367,1.021,1.021,0,0,0-.493-.1h-.8v1.626a.184.184,0,0,1-.05.137.2.2,0,0,1-.262,0,.184.184,0,0,1-.049-.137v-3.77a.168.168,0,0,1,.056-.129.187.187,0,0,1,.136-.052H601.7a1.5,1.5,0,0,1,1,.295,1.212,1.212,0,0,1,.053,1.646,1.32,1.32,0,0,1-.839.338.693.693,0,0,1,.257.155,1.539,1.539,0,0,1,.239.3l.722,1.16A.18.18,0,0,1,603.167,1422.788Zm-1.486-1.976q1.014,0,1.014-.868a.771.771,0,0,0-.251-.632,1.181,1.181,0,0,0-.763-.207h-1.265v1.708Z" transform="translate(-525.763 -1418.748)" fill="#fff"/>
        <path id="Path_2191" data-name="Path 2191" d="M609.954,1422.891a.153.153,0,0,1,.037.1c0,.085-.065.169-.2.25a1.7,1.7,0,0,1-.886.251,1.343,1.343,0,0,1-1.02-.39,1.49,1.49,0,0,1-.373-1.073,1.713,1.713,0,0,1,.166-.772,1.235,1.235,0,0,1,.467-.519,1.3,1.3,0,0,1,.69-.183,1.107,1.107,0,0,1,.865.352,1.4,1.4,0,0,1,.317.97.22.22,0,0,1-.046.155.2.2,0,0,1-.152.05h-1.94a1.209,1.209,0,0,0,.28.816.964.964,0,0,0,.74.279,1.149,1.149,0,0,0,.42-.067,2.848,2.848,0,0,0,.361-.178.413.413,0,0,1,.181-.087A.118.118,0,0,1,609.954,1422.891Zm-1.77-1.786a1.176,1.176,0,0,0-.291.717h1.8a1.106,1.106,0,0,0-.233-.719.783.783,0,0,0-.624-.255A.863.863,0,0,0,608.184,1421.1Z" transform="translate(-528.089 -1419.298)" fill="#fff"/>
        <path id="Path_2192" data-name="Path 2192" d="M616.107,1420.826a1.14,1.14,0,0,1,.254.81v1.661a.179.179,0,0,1-.047.131.188.188,0,0,1-.256,0,.18.18,0,0,1-.047-.131v-.35a.909.909,0,0,1-.355.405,1,1,0,0,1-.537.143,1.131,1.131,0,0,1-.5-.111.883.883,0,0,1-.359-.309.776.776,0,0,1-.131-.437.691.691,0,0,1,.163-.49,1,1,0,0,1,.541-.25,5.725,5.725,0,0,1,1.055-.076h.122v-.215a.834.834,0,0,0-.157-.562.631.631,0,0,0-.5-.178,1.6,1.6,0,0,0-.822.228l-.09.061a.236.236,0,0,1-.126.049.12.12,0,0,1-.1-.043.154.154,0,0,1-.038-.108c0-.085.067-.169.2-.251a1.856,1.856,0,0,1,.455-.181,1.991,1.991,0,0,1,.5-.063A1,1,0,0,1,616.107,1420.826Zm-.338,2.1a.914.914,0,0,0,.241-.652v-.193h-.11a5.908,5.908,0,0,0-.857.047.811.811,0,0,0-.42.16.427.427,0,0,0-.122.33.512.512,0,0,0,.186.4.68.68,0,0,0,.46.16A.814.814,0,0,0,615.769,1422.929Z" transform="translate(-530.152 -1419.298)" fill="#fff"/>
        <path id="Path_2193" data-name="Path 2193" d="M620.8,1422.873a.172.172,0,0,1-.05-.133v-3.806a.172.172,0,0,1,.05-.134.184.184,0,0,1,.131-.047.167.167,0,0,1,.175.181v3.806a.167.167,0,0,1-.175.18A.185.185,0,0,1,620.8,1422.873Z" transform="translate(-532.218 -1418.735)" fill="#fff"/>
      </g>
    </g>
    <g id="Group_1260" data-name="Group 1260" transform="translate(1145 -204)">
      <path id="Path_2194" data-name="Path 2194" d="M446.907,1372.921l24.366,24.365-24.26,24.629-13.051-12.683,12.156-11.788-11.946-11.735Z" transform="translate(-383.335 -1372.921)" fill="#59d800"/>
      <path id="Path_2195" data-name="Path 2195" d="M412.117,1422.581h-16l-1.368-1.368h31.47l-4.263-4.263H405.907L390.7,1401.742h26.365l24.365,24.365h-26.26Z" transform="translate(-377.279 -1376.955)" fill="#0b6023"/>
      <path id="Path_2196" data-name="Path 2196" d="M427.194,1391.182l-1.526,1.684H375.1l1.684-1.579h18.735L403.8,1383H416.2l4.513-4.513H388.357l2.072-2.072h19.662l3.115-3.115h25.461l-17.789,17.789Z" transform="translate(-375.095 -1372.974)" fill="#0b6023"/>
    </g>
  </g>
</svg>
