<svg xmlns="http://www.w3.org/2000/svg" width="11.214" height="14.042" viewBox="0 0 11.214 14.042">
  <g id="Glyph_Copy" data-name="Glyph Copy" transform="translate(2.3 1.3)">
    <path id="Union_6" data-name="Union 6" d="M3.643,12.024H1.207a1.207,1.207,0,0,1-.815-2.1A1.373,1.373,0,0,0,.839,8.915V5.881A4.469,4.469,0,0,1,4.484,1.494a.971.971,0,1,1,1.637,0,4.466,4.466,0,0,1,1.245.429,1.944,1.944,0,1,1-.345.414A3.939,3.939,0,0,0,1.364,5.881V8.915a1.9,1.9,0,0,1-.618,1.4.682.682,0,0,0,.46,1.186H9.4a.682.682,0,0,0,.46-1.186,1.9,1.9,0,0,1-.619-1.4V6.3a.263.263,0,0,1,.525,0V8.915a1.374,1.374,0,0,0,.448,1.011,1.207,1.207,0,0,1-.815,2.1H6.962a1.68,1.68,0,0,1-3.319,0Zm1.659.893a1.155,1.155,0,0,0,1.124-.893H4.178A1.157,1.157,0,0,0,5.3,12.917Zm1.95-9.556A1.418,1.418,0,1,0,8.671,1.943,1.42,1.42,0,0,0,7.253,3.361ZM7.021,2.338l0,0Zm.331-.4.015-.014ZM4.856.971A.446.446,0,1,0,5.3.525.447.447,0,0,0,4.856.971Z" transform="translate(-2 -1)" fill="#1a1724" stroke="#1a1624" stroke-linecap="round" stroke-linejoin="round" stroke-width="0.6"/>
  </g>
</svg>
