<svg xmlns="http://www.w3.org/2000/svg" width="11.2" height="14" viewBox="0 0 11.2 14">
  <g id="Group_1189" data-name="Group 1189" transform="translate(-50 -354)">
    <path id="Path_2107" data-name="Path 2107" d="M10.5,14H.7a.661.661,0,0,1-.7-.7V.7A.661.661,0,0,1,.7,0h7a.636.636,0,0,1,.49.21l2.8,2.8a.635.635,0,0,1,.21.49v9.8A.661.661,0,0,1,10.5,14ZM1.4,12.6H9.8V3.78L7.42,1.4H1.4Z" transform="translate(50 354)" fill="#1a1724"/>
    <path id="Path_2108" data-name="Path 2108" d="M11.29,5.309l-2.1-2.1a.639.639,0,0,0-.77-.14A.673.673,0,0,0,8,3.7V6.5h2.8a.612.612,0,0,0,.63-.42A.639.639,0,0,0,11.29,5.309Z" transform="translate(47.6 353.101)" fill="#1a1724"/>
  </g>
</svg>
